<svg viewBox="0 0 88 88" fill="none" xmlns="http://www.w3.org/2000/svg">
	<g>
		<path d="M44 0.513519C27.2931 0.513519 13.75 13.8981 13.75 30.4095C13.75 46.9208 44 87.4835 44 87.4835C44 87.4835 74.25 46.9208 74.25 30.4095C74.25 13.8981 60.7069 0.513519 44 0.513519ZM19.25 30.4095C19.25 16.921 30.3518 5.94914 44 5.94914C57.6482 5.94914 68.75 16.921 68.75 30.4095C68.75 39.8049 54.9945 62.4871 44 78.1329C33.0055 62.4871 19.25 39.8049 19.25 30.4095ZM44 16.8204C36.4052 16.8204 30.25 22.9035 30.25 30.4095C30.25 37.9154 36.4052 43.9985 44 43.9985C51.5948 43.9985 57.75 37.9154 57.75 30.4095C57.75 22.9035 51.5948 16.8204 44 16.8204ZM44 38.5629C39.4508 38.5629 35.75 34.9054 35.75 30.4095C35.75 25.9135 39.4508 22.256 44 22.256C48.5492 22.256 52.25 25.9135 52.25 30.4095C52.25 34.9054 48.5492 38.5629 44 38.5629Z" fill="#404040"/>
	</g>
	<defs>
	<rect width="88" height="86.97" fill="white" transform="translate(0 0.513519)"/>
	</defs>
</svg>
