<svg width="1792" height="1792" viewBox="0 0 1792 1792" fill="none" xmlns="http://www.w3.org/2000/svg">
<g clip-path="url(#clip0_2_29)">
<path d="M1612.8 1075.2C1467.96 1074.99 1325.76 1113.97 1201.27 1188.01C1308.5 1313.32 1391.72 1457.32 1446.77 1612.8H1612.8V1075.2ZM1254.4 1612.8C1165.95 1400.53 1016.65 1219.19 825.315 1091.63C633.976 964.069 409.161 896 179.2 896V1612.8H1254.4ZM179.2 716.8C508.844 716.425 827.043 837.656 1072.87 1057.28C1233.2 951.875 1420.92 895.802 1612.8 896V179.2H1703.12C1726.7 179.224 1749.31 188.608 1765.97 205.291C1782.64 221.974 1792 244.591 1792 268.173V1703.03C1791.84 1726.56 1782.42 1749.08 1765.79 1765.73C1749.16 1782.38 1726.65 1791.81 1703.12 1792H88.8832C65.3017 1791.98 42.6941 1782.59 26.0279 1765.91C9.36159 1749.23 -1.19576e-05 1726.61 0 1703.03V268.173C0.163972 244.642 9.57826 222.12 26.2092 205.472C42.84 188.825 65.3525 179.388 88.8832 179.2H358.4V0H537.6V358.4H179.2V716.8ZM1433.6 0V358.4H716.8V179.2H1254.4V0H1433.6ZM1299.2 806.4C1272.62 806.4 1246.63 798.518 1224.53 783.75C1202.43 768.981 1185.2 747.991 1175.03 723.433C1164.86 698.874 1162.2 671.851 1167.38 645.78C1172.57 619.709 1185.37 595.761 1204.16 576.965C1222.96 558.169 1246.91 545.368 1272.98 540.182C1299.05 534.997 1326.07 537.658 1350.63 547.831C1375.19 558.003 1396.18 575.229 1410.95 597.331C1425.72 619.433 1433.6 645.418 1433.6 672C1433.6 707.645 1419.44 741.83 1394.24 767.035C1369.03 792.24 1334.85 806.4 1299.2 806.4Z" fill="black"/>
</g>
<defs>
<clipPath id="clip0_2_29">
<rect width="1792" height="1792" fill="white"/>
</clipPath>
</defs>
</svg>
