<svg width="1792" height="1792" viewBox="0 0 1792 1792" fill="none" xmlns="http://www.w3.org/2000/svg">
<path d="M1344 1008C1253.47 1007.87 1164.6 1032.23 1086.79 1078.5C1153.81 1156.83 1205.83 1246.83 1240.23 1344H1344V1008ZM1120 1344C1064.72 1211.33 971.408 1097.99 851.822 1018.27C732.235 938.543 591.725 896 448 896V1344H1120ZM448 784C654.028 783.766 852.902 859.535 1006.54 996.8C1106.75 930.922 1224.08 895.876 1344 896V448H1400.45C1415.19 448.015 1429.32 453.88 1439.73 464.307C1450.15 474.734 1456 488.87 1456 503.608V1400.39C1455.9 1415.1 1450.01 1429.17 1439.62 1439.58C1429.22 1449.98 1415.15 1455.88 1400.45 1456H391.552C376.814 1455.99 362.684 1450.12 352.267 1439.69C341.851 1429.27 336 1415.13 336 1400.39V503.608C336.102 488.901 341.986 474.825 352.381 464.42C362.775 454.015 376.845 448.117 391.552 448H560V336H672V560H448V784ZM1232 336V560H784V448H1120V336H1232ZM1148 840C1131.39 840 1115.15 835.074 1101.33 825.843C1087.52 816.613 1076.75 803.494 1070.39 788.145C1064.04 772.796 1062.37 755.907 1065.61 739.612C1068.86 723.318 1076.86 708.351 1088.6 696.603C1100.35 684.855 1115.32 676.855 1131.61 673.614C1147.91 670.373 1164.8 672.036 1180.15 678.394C1195.49 684.752 1208.61 695.518 1217.84 709.332C1227.07 723.146 1232 739.386 1232 756C1232 778.278 1223.15 799.644 1207.4 815.397C1191.64 831.15 1170.28 840 1148 840Z" fill="black"/>
</svg>
