<svg width="1792" height="1792" viewBox="0 0 1792 1792" fill="none" xmlns="http://www.w3.org/2000/svg">
<path d="M1353.37 380.479V433.708C1353.37 447.806 1348.88 462.632 1339.89 478.188C1330.89 493.743 1320.56 501.521 1308.9 501.521C1284.59 501.521 1271.47 501.764 1269.52 502.25C1256.88 505.167 1249.1 512.701 1246.19 524.854C1244.73 530.201 1244 545.757 1244 571.521V1411.52C1244 1423.67 1239.62 1434.13 1230.87 1442.88C1222.12 1451.63 1211.67 1456 1199.52 1456H1120.77C1108.62 1456 1098.17 1451.63 1089.42 1442.88C1080.67 1434.13 1076.29 1423.67 1076.29 1411.52V523.396H972.021V1411.52C972.021 1423.67 967.767 1434.13 959.26 1442.88C950.753 1451.63 940.181 1456 927.542 1456H848.792C836.153 1456 825.58 1451.63 817.073 1442.88C808.566 1434.13 804.312 1423.67 804.312 1411.52V1049.85C732.854 1044.02 673.306 1029.68 625.667 1006.83C564.417 978.639 517.75 935.132 485.667 876.313C454.556 819.438 439 756.486 439 687.458C439 606.764 460.389 537.25 503.167 478.917C545.944 421.556 596.743 382.91 655.562 362.979C709.521 344.993 810.875 336 959.625 336H1308.9C1321.05 336 1331.5 340.375 1340.25 349.125C1349 357.875 1353.37 368.326 1353.37 380.479Z" fill="black"/>
</svg>
