<svg width="1792" height="1792" viewBox="0 0 1792 1792" fill="none" xmlns="http://www.w3.org/2000/svg">
<path d="M896 1456C785.243 1456 676.972 1423.16 584.881 1361.62C492.789 1300.09 421.013 1212.63 378.628 1110.3C336.243 1007.98 325.153 895.379 346.76 786.749C368.368 678.12 421.703 578.338 500.02 500.02C578.338 421.703 678.12 368.368 786.75 346.76C895.379 325.153 1007.98 336.242 1110.3 378.627C1212.63 421.013 1300.09 492.789 1361.62 584.881C1423.16 676.972 1456 785.242 1456 896C1456 1044.52 1397 1186.96 1291.98 1291.98C1186.96 1397 1044.52 1456 896 1456V1456ZM896 1344C984.606 1344 1071.22 1317.73 1144.9 1268.5C1218.57 1219.27 1275.99 1149.3 1309.9 1067.44C1343.81 985.581 1352.68 895.503 1335.39 808.6C1318.11 721.696 1275.44 641.87 1212.78 579.216C1150.13 516.562 1070.3 473.894 983.401 456.608C896.497 439.322 806.419 448.194 724.558 482.102C642.697 516.01 572.729 573.431 523.502 647.105C474.275 720.778 448 807.394 448 896C448 1014.82 495.2 1128.77 579.216 1212.78C663.233 1296.8 777.183 1344 896 1344ZM818.832 695.24L1092 877.352C1095.07 879.397 1097.59 882.169 1099.34 885.422C1101.08 888.676 1101.99 892.309 1101.99 896C1101.99 899.691 1101.08 903.324 1099.34 906.578C1097.59 909.831 1095.07 912.603 1092 914.648L818.72 1096.76C815.351 1098.98 811.446 1100.25 807.416 1100.43C803.386 1100.61 799.382 1099.7 795.826 1097.8C792.27 1095.9 789.294 1093.07 787.212 1089.61C785.131 1086.16 784.021 1082.2 784 1078.17V713.832C784.008 709.78 785.114 705.807 787.201 702.334C789.288 698.862 792.278 696.02 795.852 694.112C799.427 692.204 803.452 691.302 807.498 691.5C811.545 691.699 815.462 692.991 818.832 695.24V695.24Z"/>
</svg>
