<svg width="1792" height="1792" viewBox="0 0 1792 1792" fill="none" xmlns="http://www.w3.org/2000/svg">
<g clip-path="url(#clip0_2_7)">
<path fill-rule="evenodd" clip-rule="evenodd" d="M947.728 5.56302e-06H270.509C253.93 5.56302e-06 238.031 6.58574 226.308 18.3084C214.586 30.0311 208 45.9304 208 62.5087V1729.49C208 1746.07 214.586 1761.97 226.308 1773.69C238.031 1785.41 253.93 1792 270.509 1792H1051.87C1162.51 1792.02 1270.4 1757.49 1360.48 1693.24C1450.56 1628.99 1518.33 1538.23 1554.35 1433.61C1590.36 1328.99 1592.81 1215.73 1561.36 1109.65C1529.91 1003.57 1466.13 909.955 1378.91 841.867C1436.08 762.504 1470.23 668.901 1477.6 571.371C1484.97 473.84 1465.28 376.168 1420.69 289.113C1376.11 202.059 1308.35 129.001 1224.9 77.9884C1141.45 26.976 1045.54 -0.0111956 947.728 5.56302e-06ZM1023.49 714.283C999.468 724.231 973.725 729.352 947.728 729.352L541.422 729.227V333.422H947.728C973.725 333.421 999.468 338.542 1023.49 348.491C1047.5 358.439 1069.33 373.021 1087.71 391.404C1106.09 409.787 1120.68 431.61 1130.62 455.629C1140.57 479.647 1145.69 505.389 1145.69 531.387C1145.69 557.384 1140.57 583.126 1130.62 607.145C1120.68 631.163 1106.09 652.986 1087.71 671.369C1069.33 689.752 1047.5 704.334 1023.49 714.283ZM1191.85 1400.6C1154.72 1437.72 1104.37 1458.58 1051.87 1458.58H541.422V1062.65H1051.87C1104.37 1062.65 1154.72 1083.51 1191.85 1120.63C1228.98 1157.76 1249.83 1208.11 1249.83 1260.61C1249.83 1313.12 1228.98 1363.47 1191.85 1400.6Z" fill="black"/>
</g>
<defs>
<clipPath id="clip0_2_7">
<rect width="1792" height="1792" fill="white"/>
</clipPath>
</defs>
</svg>
