<svg width="60" height="60" viewBox="0 0 60 60" fill="none" xmlns="http://www.w3.org/2000/svg">
<g clip-path="url(#clip0_4988_149593)">
<path d="M46.4889 51.969H15.5889C12.2502 51.9708 9.01686 50.8005 6.45288 48.662C3.91442 46.5448 2.22093 43.5862 1.68088 40.325C1.15033 37.072 1.8153 33.7369 3.55288 30.936C5.04559 28.5392 7.22707 26.6487 9.81188 25.512C9.429 21.8975 10.3245 18.263 12.3429 15.24C14.6488 11.7646 18.2158 9.32217 22.2899 8.42905C23.4716 8.16401 24.6788 8.02986 25.8899 8.02905C29.1515 8.01657 32.3403 8.9928 35.0359 10.829C37.7315 12.6653 39.8074 15.2753 40.9899 18.315C42.5327 18.1027 44.1037 18.25 45.5801 18.7455C47.0566 19.2409 48.3984 20.0711 49.5009 21.171C50.7955 22.4699 51.6968 24.1082 52.1009 25.897C52.3862 27.1617 52.4127 28.4709 52.1789 29.746C54.4037 30.9085 56.198 32.7525 57.2994 35.0082C58.4008 37.2639 58.7514 39.8128 58.2999 42.282C57.7666 45.0191 56.295 47.4843 54.1389 49.2526C51.9828 51.021 49.2774 51.9816 46.4889 51.969ZM25.8859 11.433C24.9349 11.4338 23.9869 11.5391 23.0589 11.747C19.8588 12.4486 17.057 14.3671 15.2459 17.097C14.3538 18.4327 13.7339 19.9313 13.4218 21.5069C13.1097 23.0824 13.1114 24.7041 13.4269 26.279C13.5055 26.6886 13.4308 27.1127 13.2172 27.4707C13.0035 27.8288 12.6656 28.0958 12.2679 28.221C9.87873 28.988 7.83911 30.5776 6.51188 32.707C5.2 34.8192 4.69735 37.335 5.09688 39.789C5.50457 42.2485 6.78214 44.4796 8.69688 46.076C10.631 47.6856 13.0686 48.5654 15.5849 48.562H46.4849C48.4702 48.5702 50.3962 47.8855 51.9309 46.6259C53.4655 45.3663 54.5127 43.6109 54.8919 41.662C55.2439 39.7163 54.8983 37.7088 53.9158 35.9928C52.9334 34.2768 51.3771 32.9625 49.5209 32.281C49.102 32.1282 48.7603 31.8162 48.5701 31.4129C48.3799 31.0096 48.3564 30.5475 48.5049 30.127C48.9112 29.0026 48.9874 27.7854 48.7247 26.619C48.4619 25.4526 47.8711 24.3857 47.0219 23.544C46.1645 22.6904 45.0888 22.0891 43.9125 21.806C42.7363 21.5229 41.5047 21.5689 40.3529 21.939C40.1283 22.0109 39.8915 22.0368 39.6567 22.0153C39.4219 21.9938 39.1937 21.9254 38.9859 21.814C38.7798 21.7042 38.5984 21.5531 38.4531 21.3702C38.3077 21.1874 38.2015 20.9766 38.1409 20.751C37.409 18.0654 35.8112 15.6963 33.5953 14.0115C31.3795 12.3267 28.6695 11.4203 25.8859 11.433Z" fill="url(#paint0_linear_4988_149593)"/>
<path d="M28.2629 43.222V28.463L22.9979 33.723C22.8391 33.8851 22.6494 34.0137 22.44 34.1013C22.2306 34.1889 22.0059 34.2337 21.7789 34.233C21.4361 34.233 21.101 34.1313 20.816 33.9409C20.5309 33.7505 20.3087 33.4799 20.1774 33.1632C20.0461 32.8466 20.0116 32.4981 20.0783 32.1619C20.1449 31.8256 20.3097 31.5167 20.5519 31.274L28.6519 23.174C28.6899 23.129 28.7279 23.085 28.7689 23.043C28.9411 22.8657 29.1495 22.7276 29.3799 22.6381C29.6102 22.5485 29.8572 22.5097 30.104 22.5242C30.3507 22.5387 30.5914 22.6063 30.8097 22.7222C31.028 22.8381 31.2187 22.9998 31.3689 23.196L39.4579 31.278C39.7825 31.6032 39.9647 32.044 39.9643 32.5035C39.964 32.9629 39.7811 33.4034 39.4559 33.728C39.1308 34.0527 38.69 34.2348 38.2305 34.2345C37.771 34.2341 37.3305 34.0512 37.0059 33.726L31.7289 28.439V43.222C31.7289 43.6817 31.5463 44.1225 31.2213 44.4475C30.8963 44.7725 30.4555 44.955 29.9959 44.955C29.5363 44.955 29.0955 44.7725 28.7705 44.4475C28.4455 44.1225 28.2629 43.6817 28.2629 43.222Z" fill="url(#paint1_linear_4988_149593)"/>
</g>
<defs>
<linearGradient id="paint0_linear_4988_149593" x1="29.9973" y1="8.02893" x2="29.9973" y2="51.9692" gradientUnits="userSpaceOnUse">
<stop stop-color="#675AFF"/>
<stop offset="1" stop-color="#AA00E8"/>
</linearGradient>
<linearGradient id="paint1_linear_4988_149593" x1="30.0047" y1="22.5212" x2="30.0047" y2="44.955" gradientUnits="userSpaceOnUse">
<stop stop-color="#675AFF"/>
<stop offset="1" stop-color="#AA00E8"/>
</linearGradient>
<clipPath id="clip0_4988_149593">
<rect width="60" height="60" fill="white"/>
</clipPath>
</defs>
</svg>
