<svg viewBox="0 0 1792 1792" xmlns="http://www.w3.org/2000/svg">
	<g>
		<rect rx="10" height="1620" width="1620" y="79.646973" x="80" stroke-width="100" stroke-dasharray="8% 10%" fill="none"/>
		<path d="m1333.992706,381.692384l0,52.982419q0,21.04781 -12.98052,44.272981t-29.820114,23.22517q-35.082487,0 -37.889085,0.725787q-18.242893,4.354719 -22.452791,22.499384q-2.104949,7.983652 -2.104949,46.45034l0,836.106125q0,18.144664 -12.629695,31.208822t-30.170938,13.064158l-75.778171,0q-17.541243,0 -30.170938,-13.064158t-12.629695,-31.208822l0,-884.008038l-100.335911,0l0,884.008038q0,18.144664 -12.27887,31.208822t-30.521763,13.064158l-75.778171,0q-18.242893,0 -30.521763,-13.064158t-12.27887,-31.208822l0,-359.990137q-103.14251,-8.709439 -171.904184,-42.821407q-88.407866,-42.095621 -134.716748,-129.915795q-44.905583,-84.917028 -44.905583,-187.978721q0,-120.48057 61.745176,-207.574958q61.745176,-85.642815 146.644794,-115.400064q77.88312,-26.854103 292.587937,-26.854103l336.090221,0q17.541243,0 30.170938,13.064158t12.629695,31.208822z"/>
	</g>
</svg>
