<svg viewBox="0 0 76 76" xmlns="http://www.w3.org/2000/svg">
	<path d="M38 6.90909C36.2517 6.90909 34.7591 7.58381 33.5221 8.93324C32.2852 10.2827 31.6667 11.911 31.6667 13.8182V20.7273H30.0833V15.7074C30.0833 13.9801 29.5556 12.5137 28.5 11.3082C27.4444 10.1027 26.125 9.5 24.5417 9.5C23.0243 9.5 21.7214 10.0938 20.6328 11.2813C19.5443 12.4688 19 13.8902 19 15.5455V38.7017L17.4167 37.0824V27.7983C17.4167 26.071 16.8889 24.6046 15.8333 23.3991C14.7778 22.1937 13.4583 21.5909 11.875 21.5909C10.3576 21.5909 9.05469 22.1847 7.96615 23.3722C6.8776 24.5597 6.33333 25.9811 6.33333 27.6364V39.7273C6.33333 41.4186 6.91059 42.8939 8.0651 44.1534L23.4036 60.1307C24.6901 61.5341 25.3333 63.3693 25.3333 65.6364C25.3333 66.572 25.6467 67.3816 26.2734 68.0653C26.9002 68.7491 27.6424 69.0909 28.5 69.0909H60.1667C61.0243 69.0909 61.7665 68.7491 62.3932 68.0653C63.02 67.3816 63.3333 66.572 63.3333 65.6364V64.2869C63.3333 62.8116 63.4983 61.4261 63.8281 60.1307L69.1719 36.5966C69.5017 35.3011 69.6667 33.9157 69.6667 32.4403V19.1619C69.6667 17.4347 69.1389 15.9683 68.0833 14.7628C67.0278 13.5573 65.7083 12.9545 64.125 12.9545C62.6076 12.9545 61.3047 13.5483 60.2161 14.7358C59.1276 15.9233 58.5833 17.3447 58.5833 19V20.7273H57V13.9801C57 12.5407 56.5877 11.2363 55.763 10.0668C54.9384 8.89725 53.8828 8.16856 52.5964 7.88068C52.1345 7.80871 51.7552 7.77273 51.4583 7.77273C49.941 7.77273 48.638 8.36648 47.5495 9.55398C46.4609 10.7415 45.9167 12.1629 45.9167 13.8182V20.7273H44.3333V14.142C44.3333 12.3068 43.7973 10.6965 42.7253 9.31108C41.6532 7.92566 40.2925 7.14299 38.6432 6.96307C38.4783 6.92708 38.2639 6.90909 38 6.90909ZM38 0C40.7708 0 43.2283 0.899621 45.3724 2.69886C47.2526 1.47538 49.2813 0.863636 51.4583 0.863636C53.4045 0.863636 55.2352 1.34943 56.9505 2.32102C58.6658 3.29261 60.0842 4.66004 61.2057 6.4233C62.0964 6.1714 63.0694 6.04545 64.125 6.04545C67.4236 6.04545 70.2274 7.33191 72.5365 9.90483C74.8455 12.4777 76 15.5634 76 19.1619V32.4403C76 34.2756 75.7856 36.2188 75.3568 38.2699L69.9635 61.804C69.7656 62.6676 69.6667 63.9451 69.6667 65.6364C69.6667 68.5152 68.7431 70.9621 66.8958 72.9773C65.0486 74.9924 62.8056 76 60.1667 76H28.5C25.7292 76 23.4531 74.9474 21.6719 72.8423C19.8906 70.7372 19 68.1733 19 65.1506L3.76042 49.1733C1.25347 46.5464 0 43.3977 0 39.7273V27.6364C0 24.0739 1.16276 21.0241 3.48828 18.4872C5.8138 15.9503 8.60938 14.6818 11.875 14.6818C12.2378 14.6818 12.5017 14.6998 12.6667 14.7358C12.8646 11.3172 14.1098 8.43845 16.4023 6.09943C18.6949 3.76042 21.408 2.59091 24.5417 2.59091C26.2569 2.59091 27.8733 2.96875 29.3906 3.72443C31.7656 1.24148 34.6354 0 38 0Z"/>
</svg>
