<svg width="1792" height="1792" viewBox="0 0 1792 1792" fill="none" xmlns="http://www.w3.org/2000/svg">
<path fill-rule="evenodd" clip-rule="evenodd" d="M448 1269.33H1344C1363.8 1269.33 1382.79 1277.2 1396.8 1291.2C1410.8 1305.21 1418.67 1324.2 1418.67 1344C1418.67 1363.8 1410.8 1382.79 1396.8 1396.8C1382.79 1410.8 1363.8 1418.67 1344 1418.67H448C428.197 1418.67 409.205 1410.8 395.203 1396.8C381.2 1382.79 373.333 1363.8 373.333 1344C373.333 1324.2 381.2 1305.21 395.203 1291.2C409.205 1277.2 428.197 1269.33 448 1269.33ZM746.667 672H1045.33C1065.14 672 1084.13 679.866 1098.13 693.869C1112.13 707.872 1120 726.864 1120 746.666V1045.33C1120 1065.14 1112.13 1084.13 1098.13 1098.13C1084.13 1112.13 1065.14 1120 1045.33 1120H746.667C726.864 1120 707.872 1112.13 693.869 1098.13C679.867 1084.13 672 1065.14 672 1045.33V746.666C672 726.864 679.867 707.872 693.869 693.869C707.872 679.866 726.864 672 746.667 672V672ZM448 373.333H1344C1363.8 373.333 1382.79 381.2 1396.8 395.202C1410.8 409.205 1418.67 428.197 1418.67 448C1418.67 467.803 1410.8 486.794 1396.8 500.797C1382.79 514.8 1363.8 522.666 1344 522.666H448C428.197 522.666 409.205 514.8 395.203 500.797C381.2 486.794 373.333 467.803 373.333 448C373.333 428.197 381.2 409.205 395.203 395.202C409.205 381.2 428.197 373.333 448 373.333V373.333Z" fill="#242A3C"/>
</svg>
