<svg width="1792" height="1792" viewBox="0 0 1792 1792" fill="none" xmlns="http://www.w3.org/2000/svg">
<path fill-rule="evenodd" clip-rule="evenodd" d="M448 1269.33H1344C1363.8 1269.33 1382.79 1277.2 1396.8 1291.2C1410.8 1305.21 1418.67 1324.2 1418.67 1344C1418.67 1363.8 1410.8 1382.79 1396.8 1396.8C1382.79 1410.8 1363.8 1418.67 1344 1418.67H448C428.197 1418.67 409.206 1410.8 395.203 1396.8C381.2 1382.79 373.333 1363.8 373.333 1344C373.333 1324.2 381.2 1305.21 395.203 1291.2C409.206 1277.2 428.197 1269.33 448 1269.33ZM1045.33 672H1344C1363.8 672 1382.79 679.866 1396.8 693.869C1410.8 707.872 1418.67 726.864 1418.67 746.666C1418.67 766.469 1410.8 785.461 1396.8 799.464C1382.79 813.466 1363.8 821.333 1344 821.333H1045.33C1025.53 821.333 1006.54 813.466 992.536 799.464C978.534 785.461 970.667 766.469 970.667 746.666C970.667 726.864 978.534 707.872 992.536 693.869C1006.54 679.866 1025.53 672 1045.33 672V672ZM1045.33 970.666H1344C1363.8 970.666 1382.79 978.533 1396.8 992.536C1410.8 1006.54 1418.67 1025.53 1418.67 1045.33C1418.67 1065.14 1410.8 1084.13 1396.8 1098.13C1382.79 1112.13 1363.8 1120 1344 1120H1045.33C1025.53 1120 1006.54 1112.13 992.536 1098.13C978.534 1084.13 970.667 1065.14 970.667 1045.33C970.667 1025.53 978.534 1006.54 992.536 992.536C1006.54 978.533 1025.53 970.666 1045.33 970.666V970.666ZM448 672H746.667C766.47 672 785.461 679.866 799.464 693.869C813.467 707.872 821.334 726.864 821.334 746.666V1045.33C821.334 1065.14 813.467 1084.13 799.464 1098.13C785.461 1112.13 766.47 1120 746.667 1120H448C428.197 1120 409.206 1112.13 395.203 1098.13C381.2 1084.13 373.333 1065.14 373.333 1045.33V746.666C373.333 726.864 381.2 707.872 395.203 693.869C409.206 679.866 428.197 672 448 672ZM448 373.333H1344C1363.8 373.333 1382.79 381.2 1396.8 395.202C1410.8 409.205 1418.67 428.197 1418.67 448C1418.67 467.803 1410.8 486.794 1396.8 500.797C1382.79 514.8 1363.8 522.666 1344 522.666H448C428.197 522.666 409.206 514.8 395.203 500.797C381.2 486.794 373.333 467.803 373.333 448C373.333 428.197 381.2 409.205 395.203 395.202C409.206 381.2 428.197 373.333 448 373.333V373.333Z" fill="#242A3C"/>
</svg>
