<svg viewBox="0 0 24 24" xml:space="preserve" xmlns="http://www.w3.org/2000/svg">
	<path
		d="M2.5244141,23.5h18.9511719c0.4140625,0,0.75-0.3359375,0.75-0.75V4.9208984  c0-0.1992188-0.0795898-0.390625-0.2207031-0.53125L18.3198242,0.71875C18.1791992,0.5786133,17.9887695,0.5,17.7905273,0.5  H2.5244141c-0.4140625,0-0.75,0.3359375-0.75,0.75v21.5C1.7744141,23.1640625,2.1103516,23.5,2.5244141,23.5z M20.7128296,5.2197266  h-2.6986694V2.531189L20.7128296,5.2197266z M3.2744141,2h13.2397461v3.9697266c0,0.4140625,0.3359375,0.75,0.75,0.75h3.4614258V22  H3.2744141V2z"
		fill="#1D1D1D"/>
	<path
		d="M8.75,10.25h1.75c0.4140625,0,0.75-0.3359375,0.75-0.75s-0.3359375-0.75-0.75-0.75H8  c-0.4140625,0-0.75,0.3359375-0.75,0.75v2.75H6c-0.4140625,0-0.75,0.3359375-0.75,0.75S5.5859375,13.75,6,13.75h1.25v2.75  c0,0.4140625,0.3359375,0.75,0.75,0.75h2.5c0.4140625,0,0.75-0.3359375,0.75-0.75s-0.3359375-0.75-0.75-0.75H8.75V10.25z"
		fill="#1D1D1D"/>
	<path
		d="M18.5,12.25h-1.25V9.5c0-0.4140625-0.3359375-0.75-0.75-0.75H14c-0.4140625,0-0.75,0.3359375-0.75,0.75  s0.3359375,0.75,0.75,0.75h1.75v5.5H14c-0.4140625,0-0.75,0.3359375-0.75,0.75s0.3359375,0.75,0.75,0.75h2.5  c0.4140625,0,0.75-0.3359375,0.75-0.75v-2.75h1.25c0.4140625,0,0.75-0.3359375,0.75-0.75S18.9140625,12.25,18.5,12.25z"
		fill="#1D1D1D"/></svg>
