<svg width="1792" height="1792" viewBox="0 0 1792 1792" fill="none" xmlns="http://www.w3.org/2000/svg">
<path d="M896 336C785.243 336 676.972 368.843 584.881 430.377C492.789 491.911 421.013 579.371 378.628 681.697C336.243 784.024 325.153 896.621 346.76 1005.25C368.368 1113.88 421.703 1213.66 500.02 1291.98C578.338 1370.3 678.12 1423.63 786.75 1445.24C895.379 1466.85 1007.98 1455.76 1110.3 1413.37C1212.63 1370.99 1300.09 1299.21 1361.62 1207.12C1423.16 1115.03 1456 1006.76 1456 896C1455.83 747.53 1396.78 605.189 1291.8 500.204C1186.81 395.22 1044.47 336.167 896 336V336ZM548.66 848.05L654.22 896.21L700.28 1076.32L658.28 1155.21L504.28 1153.32C464.168 1092.32 438.812 1022.82 430.22 950.32L548.66 848.05ZM1133.72 1155.21L1091.72 1076.32L1137.78 895.93L1242.78 847.98L1361.22 950.53C1352.75 1023.06 1327.39 1092.59 1287.16 1153.53L1133.72 1155.21ZM1220.94 761.6L1103.55 814.38L939.05 675.5V548.45L1067.99 460.67C1148.69 493.14 1219.05 546.926 1271.55 616.28L1220.94 761.6ZM721.84 460.95L850.29 548.45V675.5L686 814.17L570.22 761.39L519.75 617.05C571.275 547.225 641.263 493.164 721.84 460.95V460.95ZM794.78 1353.66L789.39 1352.33L734.23 1204L773.78 1124.83H1018.22L1058.75 1206.45L1005.41 1351.56L997.36 1353.45C961.456 1360.05 925.079 1363.75 888.58 1364.51C857.023 1364.14 825.588 1360.51 794.78 1353.66V1353.66Z" fill="#A7A8AB"/>
</svg>
