<svg width="1792" height="1792" viewBox="0 0 1792 1792" fill="none" xmlns="http://www.w3.org/2000/svg">
<path d="M1303.54 1163.93L1128.79 965.995H1195.79C1215.5 965.995 1232.93 955.058 1241.24 937.427C1249.55 919.84 1246.82 899.672 1234.07 884.82L1063.16 686.004H1126.36C1146.26 686.004 1164.2 674.302 1171.99 656.234C1179.69 638.45 1176.06 617.757 1162.71 603.56L921.505 346.582C908.315 332.473 883.707 332.473 870.495 346.582L629.265 603.56C615.922 617.757 612.313 638.45 619.991 656.234C627.778 674.302 645.737 686.004 665.642 686.004H728.837L557.912 884.863C545.203 899.694 542.468 919.84 550.759 937.449C559.071 955.058 576.483 965.995 596.213 965.995H663.214L488.461 1163.93C475.336 1178.79 472.361 1199.13 480.674 1217C488.876 1234.61 506.923 1245.99 526.631 1245.99H826.002V1299.47L759.745 1405.34C748.108 1428.61 765.039 1456 791.047 1456H1000.95C1026.96 1456 1043.89 1428.61 1032.25 1405.34L965.998 1299.47V1245.99H1265.37C1285.08 1245.99 1303.12 1234.61 1311.33 1217C1319.64 1199.13 1316.66 1178.79 1303.54 1163.93V1163.93Z" fill="#242A3C"/>
</svg>
