<svg width="1792" height="1792" viewBox="0 0 1792 1792" fill="none" xmlns="http://www.w3.org/2000/svg">
<path d="M1091.93 552.458C974.702 552.458 877.91 476.024 730.553 476.024C679.771 475.836 629.366 484.747 581.727 502.335C589.942 480.886 591.962 457.559 587.557 435.017C583.151 412.475 572.498 391.625 556.812 374.846C541.126 358.068 521.039 346.037 498.844 340.126C476.649 334.215 453.239 334.663 431.286 341.418C409.333 348.173 389.721 360.962 374.688 378.328C359.655 395.694 349.806 416.936 346.265 439.63C342.725 462.324 345.635 485.557 354.664 506.676C363.693 527.796 378.477 545.952 397.329 559.073V1403.52C397.329 1417.44 402.858 1430.79 412.699 1440.63C422.54 1450.47 435.887 1456 449.804 1456H484.788C498.705 1456 512.052 1450.47 521.893 1440.63C531.734 1430.79 537.263 1417.44 537.263 1403.52V1197.01C616.376 1163.47 701.672 1146.99 787.585 1148.65C904.809 1148.65 1001.6 1224.71 1148.96 1224.71C1245.46 1223.9 1339.25 1192.62 1416.92 1135.34C1426.26 1128.92 1433.9 1120.31 1439.18 1110.27C1444.45 1100.24 1447.2 1089.06 1447.2 1077.72V546.285C1447.21 534.516 1444.26 522.935 1438.6 512.611C1432.95 502.288 1424.79 493.558 1414.87 487.227C1404.95 480.896 1393.59 477.17 1381.85 476.394C1370.1 475.618 1358.35 477.816 1347.69 482.786C1268.24 523.703 1181.07 547.441 1091.85 552.458H1091.93Z" fill="#242A3C"/>
</svg>
