<svg width="1792" height="1792" viewBox="0 0 1792 1792" fill="none" xmlns="http://www.w3.org/2000/svg">
<path fill-rule="evenodd" clip-rule="evenodd" d="M638.216 510.198C714.52 459.213 804.23 432 896 432C1019.06 432 1137.08 480.886 1224.1 567.902C1311.11 654.919 1360 772.939 1360 896C1360 987.77 1332.79 1077.48 1281.8 1153.78C1230.82 1230.09 1158.35 1289.56 1073.57 1324.68C988.78 1359.8 895.485 1368.99 805.478 1351.08C715.471 1333.18 632.794 1288.99 567.903 1224.1C503.011 1159.21 458.819 1076.53 440.916 986.522C423.012 896.515 432.201 803.22 467.32 718.435C502.439 633.65 561.911 561.183 638.216 510.198ZM896 336C785.243 336 676.972 368.843 584.881 430.377C492.789 491.911 421.013 579.371 378.628 681.697C336.243 784.024 325.153 896.621 346.76 1005.25C368.368 1113.88 421.703 1213.66 500.02 1291.98C578.338 1370.3 678.12 1423.63 786.75 1445.24C895.379 1466.85 1007.98 1455.76 1110.3 1413.37C1212.63 1370.99 1300.09 1299.21 1361.62 1207.12C1423.16 1115.03 1456 1006.76 1456 896C1456 747.479 1397 605.04 1291.98 500.02C1186.96 395 1044.52 336 896 336ZM677.318 951.061C660.645 930.452 630.421 927.261 609.811 943.934C589.202 960.607 586.011 990.831 602.684 1011.44C638.049 1055.16 682.37 1090.78 732.662 1115.93C782.953 1141.08 838.049 1155.16 894.24 1157.22C895.414 1157.26 896.589 1157.26 897.763 1157.22C953.953 1155.16 1009.05 1141.08 1059.34 1115.93C1109.63 1090.78 1153.95 1055.16 1189.32 1011.44C1205.99 990.831 1202.8 960.607 1182.19 943.934C1161.58 927.261 1131.36 930.452 1114.68 951.061C1087.94 984.113 1054.43 1011.05 1016.41 1030.07C978.908 1048.82 937.876 1059.43 896.001 1061.21C854.126 1059.43 813.094 1048.82 775.594 1030.07C737.568 1011.05 704.058 984.113 677.318 951.061ZM694.375 742.375C694.375 715.865 715.865 694.375 742.375 694.375H743.015C769.525 694.375 791.015 715.865 791.015 742.375C791.015 768.885 769.525 790.375 743.015 790.375H742.375C715.865 790.375 694.375 768.885 694.375 742.375ZM1049.5 694.375C1022.99 694.375 1001.5 715.865 1001.5 742.375C1001.5 768.885 1022.99 790.375 1049.5 790.375H1050.14C1076.65 790.375 1098.14 768.885 1098.14 742.375C1098.14 715.865 1076.65 694.375 1050.14 694.375H1049.5Z" fill="#242A3C"/>
</svg>
