<svg width="1792" height="1792" viewBox="0 0 1792 1792" fill="none" xmlns="http://www.w3.org/2000/svg">
<path d="M1300.91 336.491L745.486 444.231C739.909 444.695 734.671 447.101 730.687 451.031C726.703 454.961 724.224 460.164 723.684 465.734V1112.17C723.834 1123.02 721.617 1133.78 717.188 1143.68C712.575 1151.96 706.367 1159.25 698.921 1165.12C691.475 1170.99 682.94 1175.33 673.809 1177.88C664.924 1180.86 652.828 1183.55 638.567 1186.76C573.684 1201.32 465.198 1226.04 465.198 1326.23C463.879 1357.85 474.772 1388.77 495.621 1412.58C516.47 1436.39 545.677 1451.27 577.194 1454.13C583.511 1455.22 589.899 1455.85 596.308 1456C644.278 1454.25 691.3 1442.12 734.137 1420.46C755.231 1406.52 772.316 1387.31 783.697 1364.73C795.078 1342.15 800.36 1316.99 799.02 1291.74V719.591C799.014 714.636 800.731 709.833 803.878 706.006C807.025 702.178 811.404 699.564 816.267 698.611L1225.5 615.958C1228.62 615.317 1231.84 615.376 1234.93 616.132C1238.03 616.888 1240.91 618.321 1243.39 620.329C1245.86 622.336 1247.85 624.867 1249.23 627.74C1250.6 630.612 1251.32 633.754 1251.33 636.938V989.351C1252.02 1001.74 1249.72 1014.11 1244.61 1025.41C1239.98 1033.73 1233.74 1041.03 1226.26 1046.91C1218.77 1052.78 1210.19 1057.1 1201.01 1059.61C1192.12 1062.6 1177.34 1065.28 1163.08 1068.5C1098.2 1083.05 989.711 1107.54 989.711 1207.67C987.88 1239.72 998.604 1271.23 1019.61 1295.51C1040.61 1319.79 1070.25 1334.93 1102.23 1337.73C1119.68 1338.99 1137.23 1338.19 1154.49 1335.34C1189 1329.33 1222.22 1317.49 1252.75 1300.33C1275.95 1287.73 1295.17 1268.91 1308.25 1245.98C1321.34 1223.06 1327.77 1196.94 1326.82 1170.56V357.248C1326.8 354.066 1326.08 350.928 1324.69 348.063C1323.31 345.198 1321.3 342.678 1318.82 340.689C1316.33 338.699 1313.44 337.29 1310.34 336.564C1307.24 335.837 1304.02 335.813 1300.91 336.491V336.491Z" fill="#242A3C"/>
</svg>
