<svg width="1792" height="1792" viewBox="0 0 1792 1792" fill="none" xmlns="http://www.w3.org/2000/svg">
<path d="M1359.54 794.081L1333.29 728.49L1286.81 612.22C1267.55 563.639 1234.1 521.986 1190.83 492.693C1147.55 463.4 1096.45 447.826 1044.19 448H747.81C695.545 447.841 644.444 463.429 601.167 492.734C557.89 522.039 524.445 563.701 505.19 612.29L458.71 728.561L432.46 794.15C404.16 804.819 379.776 823.845 362.547 848.701C345.318 873.557 336.059 903.067 336 933.31V1045.31C336.07 1081.43 349.339 1116.29 373.31 1143.31V1269.31C373.31 1279.12 375.242 1288.83 378.995 1297.89C382.749 1306.95 388.251 1315.19 395.186 1322.12C402.122 1329.06 410.356 1334.56 419.417 1338.31C428.479 1342.07 438.192 1344 448 1344H522.69C532.498 1344 542.211 1342.07 551.273 1338.31C560.334 1334.56 568.568 1329.06 575.504 1322.12C582.439 1315.19 587.941 1306.95 591.695 1297.89C595.448 1288.83 597.38 1279.12 597.38 1269.31V1194.69H1194.69V1269.38C1194.71 1289.17 1202.58 1308.13 1216.57 1322.12C1230.56 1336.11 1249.53 1343.98 1269.31 1344H1344C1353.81 1344 1363.52 1342.07 1372.58 1338.31C1381.64 1334.56 1389.88 1329.06 1396.81 1322.12C1403.75 1315.19 1409.25 1306.95 1413 1297.89C1416.76 1288.83 1418.69 1279.12 1418.69 1269.31V1143.31C1442.67 1116.29 1455.94 1081.44 1456 1045.31V933.31C1455.96 903.055 1446.7 873.53 1429.47 848.66C1412.24 823.79 1387.85 804.753 1359.54 794.081V794.081ZM644 667.73C652.299 646.973 666.621 629.174 685.121 616.624C703.622 604.074 725.455 597.348 747.81 597.31H1044.12C1066.49 597.334 1088.34 604.053 1106.85 616.604C1125.36 629.155 1139.7 646.962 1148 667.73L1194.69 784.001H597.31L644 667.73ZM522.69 1044.89C502.946 1044.89 484.011 1037.05 470.049 1023.09C456.088 1009.12 448.245 990.19 448.245 970.445C448.245 950.701 456.088 931.766 470.049 917.805C484.011 903.844 502.946 896 522.69 896C550.282 901.634 575.609 915.255 595.523 935.168C615.436 955.081 629.056 980.408 634.69 1008C634.69 1052.31 567.49 1044.89 522.69 1044.89ZM1269.38 1044.89C1224.58 1044.89 1157.38 1052.31 1157.38 1007.65C1163.01 980.058 1176.63 954.731 1196.55 934.818C1216.46 914.905 1241.79 901.284 1269.38 895.651C1289.12 895.651 1308.06 903.494 1322.02 917.455C1335.98 931.416 1343.83 950.351 1343.83 970.095C1343.83 989.84 1335.98 1008.77 1322.02 1022.74C1308.06 1036.7 1289.12 1044.54 1269.38 1044.54V1044.89Z" fill="#A7A8AB"/>
</svg>
