<svg width="1792" height="1792" viewBox="0 0 1792 1792" xmlns="http://www.w3.org/2000/svg">
	<path fill-rule="evenodd" clip-rule="evenodd"
				d="M451.025 556.056L365.916 470.946C363.469 468.493 360.348 466.821 356.95 466.144C353.551 465.466 350.028 465.812 346.827 467.14C343.626 468.467 340.891 470.714 338.969 473.597C337.046 476.481 336.024 479.87 336.03 483.335V738.523C336.03 748.182 343.869 756.021 353.528 756.021H608.716C612.181 756.027 615.57 755.004 618.453 753.082C621.336 751.159 623.584 748.425 624.911 745.224C626.238 742.023 626.585 738.499 625.907 735.101C625.229 731.702 623.558 728.582 621.104 726.135L526.056 631.086C588.014 544.553 678.351 482.48 781.346 455.668C884.342 428.856 993.477 439.002 1089.77 484.341C1186.05 529.68 1263.4 607.342 1308.34 703.815C1353.29 800.287 1362.99 909.465 1335.76 1012.35C1308.52 1115.23 1246.08 1205.31 1159.29 1266.92C1072.51 1328.52 966.869 1357.75 860.76 1349.52C754.651 1341.28 654.786 1296.11 578.543 1221.86C502.299 1147.6 454.501 1048.96 443.466 943.105C442.037 929.252 435.161 916.531 424.353 907.74C413.543 898.955 399.686 894.819 385.829 896.25C371.971 897.678 359.25 904.554 350.462 915.361C341.674 926.173 337.54 940.031 338.969 953.884C352.435 1083.46 410.651 1204.28 503.596 1295.55C596.541 1386.83 718.399 1442.84 848.193 1453.96C977.984 1465.07 1107.59 1430.59 1214.71 1356.45C1321.81 1282.3 1399.72 1173.14 1435.02 1047.74C1470.32 922.343 1460.79 788.566 1408.09 669.435C1355.39 550.305 1262.8 453.275 1146.27 395.05C1029.73 336.826 896.548 321.049 769.639 350.436C642.729 379.823 530.034 452.536 450.955 556.056H451.025ZM878.462 616.038C892.384 616.038 905.736 621.569 915.58 631.413C925.423 641.258 930.955 654.61 930.955 668.532V877.946L1072.9 934.779C1085.41 940.233 1095.3 950.339 1100.48 962.966C1105.66 975.587 1105.73 989.731 1100.66 1002.4C1095.59 1015.07 1085.79 1025.26 1073.32 1030.83C1060.86 1036.4 1046.73 1036.89 1033.91 1032.21L858.934 962.216C849.203 958.313 840.863 951.594 834.988 942.909C829.112 934.225 825.971 923.984 825.968 913.502V668.532C825.968 654.61 831.499 641.258 841.343 631.413C851.188 621.569 864.54 616.038 878.462 616.038Z"/>
</svg>
