<svg width="1792" height="1792" viewBox="0 0 1792 1792" fill="none" xmlns="http://www.w3.org/2000/svg">
<path d="M1453.55 667.183L1361.73 1386.77H1051.69L960.224 663.613H1338.77L1413.59 405.228L1456 418.035L1384.2 666.693L1453.48 667.253L1453.55 667.183ZM916.413 1083.53C916.413 1083.53 928.031 990.235 767.204 990.235H511.198C350.651 990.235 361.989 1083.53 361.989 1083.53H916.413ZM361.989 1293.48C361.989 1293.48 350.651 1386.77 511.198 1386.77H767.274C928.241 1386.77 916.483 1293.48 916.483 1293.48H361.989ZM892.338 1246.8C906.33 1245.26 919.158 1238.29 928.06 1227.39C936.961 1216.48 941.223 1202.52 939.928 1188.5C941.261 1174.47 937.015 1160.48 928.108 1149.56C919.201 1138.63 906.351 1131.66 892.338 1130.14H383.824C369.819 1131.67 356.979 1138.65 348.076 1149.57C339.173 1160.49 334.92 1174.48 336.234 1188.5C334.957 1202.52 339.226 1216.47 348.124 1227.37C357.022 1238.27 369.84 1245.25 383.824 1246.8H892.338Z" fill="#A7A8AB"/>
</svg>
