<svg width="1792" height="1792" viewBox="0 0 1792 1792" fill="none" xmlns="http://www.w3.org/2000/svg">
<path d="M721.29 1329.89C721.314 1343.65 725.391 1357.09 733.012 1368.55L770.351 1424.72C776.731 1434.34 785.391 1442.23 795.56 1447.69C805.729 1453.14 817.091 1456 828.632 1456H963.567C975.102 1456.01 986.46 1453.16 996.629 1447.71C1006.8 1442.27 1015.46 1434.39 1021.85 1424.79L1059.19 1368.61C1066.81 1357.16 1070.89 1343.71 1070.91 1329.96V1246.06H721.224V1329.89H721.29ZM511.282 721.332C511.153 814.491 545.011 904.498 606.507 974.475C656.559 1033.52 695.273 1101.3 720.697 1174.41V1176.12H1071.04V1174.41C1096.45 1101.3 1135.14 1033.52 1185.17 974.475C1226.21 927.699 1255.3 871.662 1269.93 811.173C1284.57 750.684 1284.31 687.548 1269.18 627.182C1254.04 566.815 1224.49 511.021 1183.06 464.585C1141.63 418.148 1089.55 382.457 1031.29 360.572C973.03 338.687 910.331 331.263 848.572 338.935C786.813 346.607 727.837 369.147 676.704 404.621C625.571 440.096 583.807 487.445 554.994 542.607C526.182 597.77 511.183 659.099 511.282 721.332ZM896.133 546.358C849.737 546.393 805.252 564.839 772.446 597.646C739.639 630.452 721.193 674.937 721.158 721.332C721.158 730.607 717.474 739.501 710.916 746.059C704.359 752.617 695.464 756.301 686.19 756.301C676.916 756.301 668.021 752.617 661.464 746.059C654.906 739.501 651.222 730.607 651.222 721.332C651.291 656.399 677.117 594.146 723.031 548.231C768.946 502.317 831.2 476.491 896.133 476.421C905.407 476.421 914.301 480.106 920.859 486.663C927.417 493.221 931.101 502.116 931.101 511.39C931.101 520.664 927.417 529.558 920.859 536.116C914.301 542.674 905.407 546.358 896.133 546.358Z" fill="#242A3C"/>
</svg>
