<svg width="1792" height="1792" viewBox="0 0 1792 1792" fill="none" xmlns="http://www.w3.org/2000/svg">
<path d="M1390.97 963.134C1410.15 930.65 1421 896 1421 854.109C1421 757.827 1339.59 666.903 1233.27 666.903H1153.47C1164.23 638.881 1172.83 605.369 1172.83 565.097C1172.83 405.86 1090.38 336 964.425 336C829.66 336 837.347 543.666 807.45 573.562C757.691 623.322 698.917 718.915 657.037 756H441C402.34 756 371 787.34 371 826V1351C371 1389.66 402.34 1421 441 1421H581C613.578 1421 640.955 1398.74 648.764 1368.61C746.128 1370.8 812.958 1455.98 1037.71 1455.98C1053.5 1455.98 1071 1456 1086.31 1456C1255.01 1456 1331.28 1369.76 1333.37 1247.47C1362.5 1207.16 1377.77 1153.14 1371.3 1100.92C1392.86 1060.56 1401.19 1012.67 1390.97 963.134ZM1255.89 1080.89C1283.36 1127.11 1258.64 1188.97 1225.39 1206.82C1242.24 1313.53 1186.88 1350.98 1109.19 1350.98H1026.46C869.752 1350.98 768.274 1268.25 651 1268.25V861H674.887C736.925 861 823.594 705.928 881.694 647.806C943.731 585.769 923.059 482.366 964.425 441C1067.83 441 1067.83 513.144 1067.83 565.097C1067.83 650.781 1005.79 689.172 1005.79 771.903H1233.27C1279.45 771.903 1315.8 813.269 1316 854.634C1316.2 895.978 1287.96 937.344 1267.28 937.344C1296.79 969.183 1303.1 1036.3 1255.89 1080.89V1080.89ZM563.5 1281C563.5 1310 539.995 1333.5 511 1333.5C482.005 1333.5 458.5 1310 458.5 1281C458.5 1252 482.005 1228.5 511 1228.5C539.995 1228.5 563.5 1252 563.5 1281Z" fill="#242A3C"/>
</svg>
