<svg width="180" height="108" viewBox="0 0 180 108" fill="none" xmlns="http://www.w3.org/2000/svg">
<g clip-path="url(#clip0_4988_149545)">
<path d="M28.522 44.0469C25.0922 44.0785 21.7126 43.2218 18.712 41.5602C15.7694 39.9427 13.3192 37.5594 11.6209 34.6626C9.85534 31.6396 8.95086 28.191 9.00551 24.6906C8.95086 21.1902 9.85534 17.7416 11.6209 14.7186C13.3151 11.8254 15.7669 9.44951 18.712 7.84715C21.7193 6.20144 25.0985 5.35456 28.5265 5.38745C31.9625 5.34895 35.3503 6.19639 38.3635 7.84805C41.2933 9.45238 43.7275 11.8289 45.4015 14.7195C47.1504 17.7482 48.0449 21.1946 47.9899 24.6915C48.0449 28.1885 47.1504 31.6348 45.4015 34.6635C43.7182 37.5629 41.2754 39.9478 38.3365 41.5611C35.3345 43.2232 31.9533 44.0796 28.522 44.0469ZM28.522 34.3152C29.714 34.3734 30.9042 34.1689 32.0085 33.7162C33.1127 33.2634 34.1039 32.5736 34.912 31.6953C36.5497 29.74 37.3878 27.2379 37.2583 24.6906C37.4023 22.117 36.5637 19.5848 34.912 17.6058C34.0996 16.7349 33.107 16.0516 32.0033 15.6036C30.8997 15.1556 29.7117 14.9537 28.522 15.012C27.3277 14.9481 26.134 15.1473 25.0251 15.5955C23.9163 16.0437 22.9194 16.73 22.105 17.6058C20.4696 19.5924 19.6417 22.1216 19.7857 24.6906C19.6471 27.2428 20.4752 29.7535 22.105 31.7223C22.9195 32.598 23.9164 33.2841 25.0253 33.7322C26.1341 34.1802 27.3278 34.3793 28.522 34.3152ZM69.346 44.0469C65.9162 44.0785 62.5366 43.2218 59.536 41.5602C56.5931 39.9429 54.1425 37.5595 52.444 34.6626C50.6784 31.6396 49.774 28.191 49.8286 24.6906C49.774 21.1902 50.6784 17.7416 52.444 14.7186C54.1384 11.8253 56.5906 9.44938 59.536 7.84715C62.5433 6.20144 65.9225 5.35456 69.3505 5.38745C72.7865 5.34895 76.1744 6.19639 79.1875 7.84805C82.1174 9.45238 84.5515 11.8289 86.2255 14.7195C87.9744 17.7482 88.8689 21.1946 88.8139 24.6915C88.8698 28.19 87.9752 31.638 86.2255 34.668C84.5422 37.5674 82.0994 39.9523 79.1605 41.5656C76.1598 43.2269 72.7802 44.0833 69.3505 44.0514L69.346 44.0469ZM69.346 34.3152C70.538 34.3734 71.7283 34.1689 72.8325 33.7162C73.9367 33.2634 74.9279 32.5736 75.736 31.6953C77.3737 29.74 78.2118 27.2379 78.0823 24.6906C78.2263 22.117 77.3877 19.5848 75.736 17.6058C74.9236 16.7349 73.931 16.0516 72.8273 15.6036C71.7237 15.1556 70.5357 14.9537 69.346 15.012C68.1517 14.9481 66.958 15.1473 65.8491 15.5955C64.7403 16.0437 63.7434 16.73 62.929 17.6058C61.2936 19.5924 60.4657 22.1216 60.6097 24.6906C60.4711 27.2428 61.2992 29.7535 62.929 31.7223C63.7435 32.598 64.7404 33.2841 65.8493 33.7322C66.9581 34.1802 68.1518 34.3793 69.346 34.3152ZM121.98 18.5409C122.005 20.7203 121.457 22.868 120.389 24.768C119.262 26.7022 117.593 28.2639 115.589 29.2599C113.149 30.45 110.456 31.028 107.743 30.9438H102.512V43.668H91.9414V5.97515H107.743C110.429 5.89615 113.098 6.44499 115.535 7.57805C117.556 8.53633 119.24 10.0837 120.366 12.0168C121.47 14.0112 122.027 16.262 121.98 18.5409ZM106.718 22.608C109.701 22.608 111.193 21.2535 111.193 18.5445C111.193 15.7995 109.701 14.427 106.718 14.427H102.511V22.608H106.718ZM138.966 44.0496C134.544 44.0496 130.914 43.0068 128.076 40.9212C126.671 39.8856 125.526 38.5378 124.731 36.9842C123.935 35.4305 123.511 33.7134 123.493 31.968H134.766C134.772 33.0452 135.197 34.0778 135.95 34.848C136.685 35.4727 137.628 35.7973 138.592 35.757C139.45 35.7923 140.295 35.5387 140.991 35.037C141.299 34.8043 141.546 34.5002 141.711 34.1509C141.875 33.8016 141.952 33.4176 141.936 33.0318C141.942 32.5003 141.799 31.9777 141.522 31.5238C141.245 31.0699 140.847 30.703 140.371 30.465C138.753 29.6223 137.055 28.9416 135.303 28.4328C133.245 27.7821 131.235 26.9869 129.29 26.0532C127.719 25.2509 126.354 24.0984 125.299 22.6845C124.102 20.9943 123.504 18.9522 123.601 16.8831C123.539 14.6651 124.181 12.4844 125.434 10.6533C126.709 8.88281 128.468 7.51806 130.5 6.72305C132.833 5.7991 135.325 5.34491 137.834 5.38655C142.256 5.38655 145.788 6.41135 148.431 8.46095C149.743 9.4879 150.805 10.7988 151.538 12.2953C152.27 13.7918 152.654 15.4348 152.661 17.1009H141.178C141.196 16.6228 141.112 16.1462 140.931 15.7034C140.749 15.2606 140.475 14.8618 140.127 14.5341C139.406 13.9445 138.495 13.6399 137.565 13.6782C136.852 13.6497 136.157 13.8988 135.624 14.373C135.364 14.6299 135.162 14.9395 135.031 15.2811C134.901 15.6227 134.846 15.9882 134.869 16.353C134.867 16.7026 134.941 17.0484 135.085 17.3668C135.23 17.6852 135.441 17.9688 135.705 18.198C136.32 18.7526 137.021 19.204 137.781 19.5345C138.608 19.9089 139.83 20.3811 141.449 20.9511C143.49 21.6188 145.481 22.4308 147.408 23.3811C148.985 24.1946 150.365 25.3438 151.451 26.748C152.627 28.3272 153.227 30.2616 153.15 32.229C153.18 34.364 152.59 36.4619 151.451 38.268C150.249 40.1142 148.547 41.5811 146.544 42.498C144.168 43.5813 141.577 44.111 138.966 44.0469V44.0496ZM170.569 4.05005L169.326 29.556H160.326L159.086 4.05005H170.569ZM164.852 44.1C163.214 44.1792 161.606 43.6348 160.352 42.5763C159.802 42.0947 159.364 41.4976 159.071 40.8276C158.777 40.1577 158.635 39.4312 158.654 38.7C158.636 37.9651 158.779 37.2352 159.073 36.5611C159.366 35.887 159.803 35.2849 160.352 34.7967C161.598 33.7223 163.209 33.1672 164.852 33.246C166.479 33.1726 168.072 33.7278 169.301 34.7967C169.851 35.2847 170.287 35.8867 170.581 36.5606C170.874 37.2345 171.017 37.9643 171 38.6991C171.014 39.4258 170.869 40.1466 170.576 40.8116C170.282 41.4765 169.848 42.0695 169.302 42.5493C168.073 43.6185 166.48 44.1738 164.852 44.1Z" fill="#E4E5E8"/>
<g filter="url(#filter0_d_4988_149545)">
<path d="M90 103.95C108.64 103.95 123.75 88.8397 123.75 70.2001C123.75 51.5605 108.64 36.4501 90 36.4501C71.3604 36.4501 56.25 51.5605 56.25 70.2001C56.25 88.8397 71.3604 103.95 90 103.95Z" fill="#FFCA5F"/>
</g>
<path d="M107.636 41.266C111.744 47.6943 113.551 55.3262 112.761 62.9145C111.971 70.5028 108.63 77.5986 103.285 83.0425C97.94 88.4863 90.9064 91.9561 83.3338 92.8849C75.7613 93.8138 68.0976 92.1466 61.5952 88.156C64.3258 92.4247 67.9836 96.0229 72.2966 98.683C76.6096 101.343 81.4668 102.997 86.507 103.521C91.5472 104.045 96.6407 103.426 101.409 101.71C106.177 99.9935 110.496 97.2246 114.047 93.6088C117.597 89.9931 120.286 85.6235 121.915 80.8249C123.543 76.0264 124.069 70.9225 123.453 65.8927C122.837 60.8629 121.095 56.0368 118.357 51.7731C115.618 47.5095 111.954 43.9181 107.636 41.266Z" fill="#FFB948"/>
<path d="M60.8734 73.5912C60.8726 67.0548 62.9185 60.6821 66.724 55.3677C70.5296 50.0532 75.9036 46.0638 82.092 43.9592C88.2804 41.8546 94.9724 41.7405 101.229 43.633C107.485 45.5255 112.992 49.3295 116.977 54.5112C114.842 50.7932 111.966 47.5535 108.527 44.993C105.088 42.4325 101.16 40.6059 96.9855 39.6265C92.8115 38.647 88.4807 38.5356 84.2618 39.2991C80.043 40.0627 76.026 41.6849 72.46 44.0652C68.894 46.4454 65.8551 49.533 63.5318 53.1363C61.2084 56.7396 59.6502 60.7819 58.9538 65.0124C58.2573 69.2428 58.4375 73.5713 59.4831 77.7292C60.5287 81.8872 62.4175 85.7859 65.0323 89.1837C62.3 84.441 60.8655 79.062 60.8734 73.5885V73.5912Z" fill="#FFD26E"/>
<path d="M77.8706 69.2965C79.8961 69.2965 81.5381 66.9977 81.5381 64.162C81.5381 61.3263 79.8961 59.0275 77.8706 59.0275C75.8451 59.0275 74.2031 61.3263 74.2031 64.162C74.2031 66.9977 75.8451 69.2965 77.8706 69.2965Z" fill="#352626"/>
<path d="M101.203 69.2965C103.229 69.2965 104.871 66.9977 104.871 64.162C104.871 61.3263 103.229 59.0275 101.203 59.0275C99.1776 59.0275 97.5356 61.3263 97.5356 64.162C97.5356 66.9977 99.1776 69.2965 101.203 69.2965Z" fill="#352626"/>
<path d="M97.9902 79.9758H81.4851C80.5735 79.9758 79.8345 80.7148 79.8345 81.6264C79.8345 82.538 80.5735 83.277 81.4851 83.277H97.9902C98.9018 83.277 99.6408 82.538 99.6408 81.6264C99.6408 80.7148 98.9018 79.9758 97.9902 79.9758Z" fill="#352626"/>
<path d="M110.552 81.0891C110.552 86.4702 108.455 88.2099 105.872 88.2099C103.289 88.2099 101.192 86.4702 101.192 81.0891C101.192 75.708 105.872 68.7231 105.872 68.7231C105.872 68.7231 110.552 75.7071 110.552 81.0891Z" fill="white"/>
</g>
<defs>
<filter id="filter0_d_4988_149545" x="50.25" y="33.4501" width="79.5" height="79.5" filterUnits="userSpaceOnUse" color-interpolation-filters="sRGB">
<feFlood flood-opacity="0" result="BackgroundImageFix"/>
<feColorMatrix in="SourceAlpha" type="matrix" values="0 0 0 0 0 0 0 0 0 0 0 0 0 0 0 0 0 0 127 0" result="hardAlpha"/>
<feOffset dy="3"/>
<feGaussianBlur stdDeviation="3"/>
<feColorMatrix type="matrix" values="0 0 0 0 0 0 0 0 0 0 0 0 0 0 0 0 0 0 0.161 0"/>
<feBlend mode="normal" in2="BackgroundImageFix" result="effect1_dropShadow_4988_149545"/>
<feBlend mode="normal" in="SourceGraphic" in2="effect1_dropShadow_4988_149545" result="shape"/>
</filter>
<clipPath id="clip0_4988_149545">
<rect width="180" height="108" fill="white"/>
</clipPath>
</defs>
</svg>
