<svg width="1792" height="1792" viewBox="0 0 1792 1792" fill="none" xmlns="http://www.w3.org/2000/svg">
<path fill-rule="evenodd" clip-rule="evenodd" d="M772.651 169.269C886.508 169.273 998.001 201.768 1094.03 262.938C1190.06 324.108 1266.64 411.412 1314.78 514.595C1362.91 617.778 1380.6 732.555 1365.76 845.442C1350.93 958.329 1304.19 1064.64 1231.03 1151.88L1594.06 1494.6C1607 1508.9 1613.95 1527.63 1613.47 1546.91C1612.98 1566.19 1605.1 1584.54 1591.45 1598.17C1577.81 1611.8 1559.44 1619.66 1540.16 1620.11C1520.88 1620.57 1502.16 1613.59 1487.88 1600.63L1122.61 1252.68C1021.33 1326.24 899.32 1365.77 774.144 1365.58C695.583 1365.58 617.792 1350.11 545.212 1320.04C472.631 1289.98 406.683 1245.91 351.132 1190.36C295.581 1134.81 251.516 1068.86 221.452 996.282C191.388 923.701 175.915 845.91 175.915 767.349C175.915 688.789 191.388 610.998 221.452 538.417C251.516 465.837 295.581 399.888 351.132 344.337C406.683 288.787 472.631 244.721 545.212 214.658C617.792 184.594 695.583 169.12 774.144 169.12L772.651 169.269ZM772.651 1216.17C861.39 1216.17 948.136 1189.86 1021.92 1140.56C1095.7 1091.26 1153.21 1021.18 1187.17 939.198C1221.13 857.214 1230.01 767.001 1212.7 679.967C1195.39 592.933 1152.66 512.988 1089.91 450.24C1027.16 387.492 947.216 344.76 860.182 327.448C773.148 310.136 682.935 319.021 600.951 352.98C518.967 386.939 448.894 444.446 399.594 518.23C350.293 592.014 323.979 678.76 323.979 767.499C323.979 886.494 371.249 1000.62 455.392 1084.76C539.534 1168.9 653.655 1216.17 772.651 1216.17V1216.17Z" fill="#A7A8AB"/>
</svg>
