<svg width="1792" height="1792" viewBox="0 0 1792 1792" fill="none" xmlns="http://www.w3.org/2000/svg">
<path d="M560 1045.33H784V896H709.333V970.667H634.667V821.333H784V746.667H560V1045.33ZM858.667 1045.33H933.333V746.667H858.667V1045.33ZM1008 1045.33H1082.67V933.333H1194.67V858.667H1082.67V821.333H1232V746.667H1008V1045.33ZM281 1400C280.448 1400 280 1399.55 280 1399V393C280 392.448 280.448 392 281 392H1511C1511.55 392 1512 392.448 1512 393V1399C1512 1399.55 1511.55 1400 1511 1400H281ZM392 1288H1400V504H392V1288Z"/>
</svg>
