<svg stroke="black" viewBox="0 0 32 32" xml:space="preserve" xmlns="http://www.w3.org/2000/svg">
	<style type="text/css">
	.st0{fill:none;stroke-width:2.4;stroke-linecap:round;stroke-linejoin:round;stroke-miterlimit:10;}
</style>
	<path class="st0" d="M29,23H3c-1.1,0-2-0.9-2-2V11c0-1.1,0.9-2,2-2h26c1.1,0,2,0.9,2,2v10C31,22.1,30.1,23,29,23z"/>
	<path class="st0" d="M13,19L13,19c-1.1,0-2-0.9-2-2v-2c0-1.1,0.9-2,2-2h0c1.1,0,2,0.9,2,2v2C15,18.1,14.1,19,13,19z"/>
	<line class="st0" x1="18" x2="18" y1="13" y2="19"/>
	<line class="st0" x1="21" x2="18" y1="13" y2="17"/>
	<line class="st0" x1="21" x2="19" y1="19" y2="16"/>
</svg>
