<svg width="1792" height="1792" viewBox="0 0 1792 1792" fill="none" xmlns="http://www.w3.org/2000/svg">
<path d="M895.565 1163.83C895.565 1145.57 890.493 1128.07 880.348 1111.33C879.841 1110.82 875.909 1105.11 868.554 1094.21C861.199 1083.3 854.732 1073.66 849.152 1065.29C843.572 1056.92 837.232 1045.76 830.13 1031.82C823.029 1017.87 817.703 1005.06 814.152 993.391C812.123 985.275 806.797 981.217 798.174 981.217C789.551 981.217 784.225 985.275 782.196 993.391C778.645 1005.06 773.319 1017.87 766.217 1031.82C759.116 1045.76 752.775 1056.92 747.196 1065.29C741.616 1073.66 735.149 1083.3 727.793 1094.21C720.438 1105.11 716.507 1110.82 716 1111.33C705.855 1128.07 700.783 1145.57 700.783 1163.83C700.783 1190.71 710.293 1213.66 729.315 1232.68C748.337 1251.71 771.29 1261.22 798.174 1261.22C825.058 1261.22 848.011 1251.71 867.033 1232.68C886.054 1213.66 895.565 1190.71 895.565 1163.83ZM1285.13 1066.43C1285.13 1173.97 1247.09 1265.78 1171 1341.87C1094.91 1417.96 1003.1 1456 895.565 1456C788.029 1456 696.217 1417.96 620.13 1341.87C544.043 1265.78 506 1173.97 506 1066.43C506 992.884 526.543 923.138 567.63 857.196C570.674 852.63 586.525 829.678 615.185 788.337C643.844 746.996 669.46 708.699 692.033 673.446C714.605 638.192 739.841 593.047 767.739 538.011C795.638 482.975 816.688 431.87 830.891 384.696C835.457 369.478 844.08 357.558 856.761 348.935C869.442 340.312 882.377 336 895.565 336C908.754 336 921.815 340.312 934.75 348.935C947.685 357.558 956.181 369.478 960.239 384.696C974.442 431.87 995.493 482.975 1023.39 538.011C1051.29 593.047 1076.53 638.192 1099.1 673.446C1121.67 708.699 1147.29 746.996 1175.95 788.337C1204.61 829.678 1220.46 852.63 1223.5 857.196C1264.59 921.616 1285.13 991.362 1285.13 1066.43Z"/>
</svg>
