<svg width="1792" height="1792" viewBox="0 0 1792 1792" fill="none" xmlns="http://www.w3.org/2000/svg">
<path fill-rule="evenodd" clip-rule="evenodd" d="M1187.72 482.048V406.784C1187.62 361.895 1169.74 318.876 1137.98 287.149C1106.23 255.422 1063.19 237.574 1018.3 237.515H773.77C728.894 237.594 685.878 255.45 654.139 287.175C622.4 318.9 604.524 361.908 604.426 406.784V482.048H468.085H467.935L467.793 482.048H345.855C339.505 481.795 333.17 482.828 327.228 485.083C321.287 487.339 315.863 490.772 311.281 495.175C306.699 499.579 303.053 504.862 300.563 510.709C298.073 516.556 296.789 522.845 296.789 529.2C296.789 535.555 298.073 541.845 300.563 547.691C303.053 553.538 306.699 558.822 311.281 563.225C315.863 567.628 321.287 571.061 327.228 573.317C333.17 575.572 339.505 576.605 345.855 576.352H420.746V1385.07C420.805 1429.98 438.674 1473.04 470.433 1504.8C502.192 1536.56 545.25 1554.43 590.165 1554.49H1201.68C1246.6 1554.43 1289.66 1536.56 1321.42 1504.8C1353.18 1473.04 1371.04 1429.98 1371.1 1385.07V576.352H1446.14C1458.32 575.867 1469.84 570.687 1478.29 561.898C1486.74 553.108 1491.46 541.391 1491.46 529.2C1491.46 517.01 1486.74 505.292 1478.29 496.502C1469.84 487.713 1458.32 482.533 1446.14 482.048H1324.06L1323.91 482.048H1187.72ZM1093.42 482.048V406.784C1093.28 386.946 1085.31 367.967 1071.24 353.981C1057.17 339.995 1038.14 332.137 1018.3 332.117H773.77C753.932 332.137 734.905 339.995 720.835 353.981C706.765 367.967 698.793 386.946 698.655 406.784V482.048H1093.42ZM515.498 576.427V1385.07C515.517 1404.9 523.376 1423.93 537.362 1438C551.348 1452.07 570.327 1460.04 590.165 1460.18H1201.46C1211.37 1460.24 1221.19 1458.34 1230.35 1454.59C1239.52 1450.85 1247.86 1445.32 1254.89 1438.34C1261.92 1431.36 1267.5 1423.06 1271.31 1413.92C1275.12 1404.78 1277.09 1394.97 1277.1 1385.07V576.427H515.498ZM740.552 1234.98C749.402 1243.83 761.404 1248.8 773.92 1248.8C786.422 1248.78 798.406 1243.8 807.239 1234.95C816.073 1226.1 821.034 1214.11 821.034 1201.61V834.848C820.55 822.667 815.37 811.146 806.58 802.7C797.79 794.253 786.073 789.535 773.883 789.535C761.692 789.535 749.975 794.253 741.185 802.7C732.395 811.146 727.215 822.667 726.73 834.848V1201.61C726.73 1214.13 731.702 1226.13 740.552 1234.98ZM1018.23 1248.8C1005.71 1248.8 993.71 1243.83 984.861 1234.98C976.011 1226.13 971.039 1214.13 971.039 1201.61V834.848C971.524 822.667 976.704 811.146 985.493 802.7C994.283 794.253 1006 789.535 1018.19 789.535C1030.38 789.535 1042.1 794.253 1050.89 802.7C1059.68 811.146 1064.86 822.667 1065.34 834.848V1201.61C1065.34 1214.11 1060.38 1226.1 1051.55 1234.95C1042.71 1243.8 1030.73 1248.78 1018.23 1248.8Z" fill="#242A3C"/>
</svg>
