<svg width="1792" height="1792" viewBox="0 0 1792 1792" fill="none" xmlns="http://www.w3.org/2000/svg">
<path fill-rule="evenodd" clip-rule="evenodd" d="M964.469 373.333H560C550.099 373.333 540.603 377.267 533.601 384.268C526.6 391.269 522.667 400.765 522.667 410.667V1406.27C522.667 1416.17 526.6 1425.67 533.601 1432.67C540.603 1439.67 550.099 1443.61 560 1443.61H1026.67C1092.75 1443.62 1157.19 1423 1210.99 1384.62C1264.79 1346.25 1305.26 1292.04 1326.77 1229.55C1348.28 1167.07 1349.74 1099.43 1330.96 1036.07C1312.18 972.716 1274.08 916.804 1221.99 876.139C1256.14 828.739 1276.53 772.834 1280.94 714.584C1285.34 656.334 1273.58 597.999 1246.95 546.006C1220.32 494.013 1179.85 450.379 1130.01 419.912C1080.17 389.445 1022.89 373.327 964.469 373.333ZM1009.72 799.938C995.371 805.88 979.996 808.939 964.469 808.939L721.803 808.864V572.469H964.469C979.996 572.469 995.371 575.527 1009.72 581.469C1024.06 587.411 1037.09 596.12 1048.07 607.099C1059.05 618.078 1067.76 631.113 1073.7 645.457C1079.65 659.802 1082.7 675.177 1082.7 690.704C1082.7 706.231 1079.65 721.605 1073.7 735.95C1067.76 750.295 1059.05 763.329 1048.07 774.308C1037.09 785.288 1024.06 793.997 1009.72 799.938ZM1110.27 1209.84C1088.1 1232.01 1058.02 1244.47 1026.67 1244.47H721.803V1008H1026.67C1058.02 1008 1088.1 1020.46 1110.27 1042.63C1132.44 1064.8 1144.9 1094.88 1144.9 1126.23C1144.9 1157.59 1132.44 1187.67 1110.27 1209.84Z" fill="black"/>
</svg>
