<svg width="1792" height="1792" viewBox="0 0 1792 1792" fill="none" xmlns="http://www.w3.org/2000/svg">
<path d="M896 597.333C957.856 597.333 1008 547.189 1008 485.333C1008 423.477 957.856 373.333 896 373.333C834.144 373.333 784 423.477 784 485.333C784 547.189 834.144 597.333 896 597.333Z"/>
<path d="M1094.28 585.067C1104.07 565.204 1119.54 548.69 1138.71 537.612C1151.46 530.25 1165.53 525.472 1180.12 523.551C1194.71 521.631 1209.54 522.605 1223.76 526.419C1237.97 530.233 1251.3 536.812 1262.97 545.779C1274.64 554.746 1284.43 565.926 1291.78 578.679C1302.83 597.868 1307.95 619.904 1306.49 642.001C1305.02 664.099 1297.04 685.267 1283.55 702.828C1270.06 720.39 1251.66 733.557 1230.69 740.666C1209.71 747.776 1187.1 748.507 1165.71 742.768C1144.32 737.029 1125.11 725.078 1110.52 708.425C1095.92 691.772 1086.58 671.165 1083.69 649.208C1080.8 627.251 1084.49 604.93 1094.28 585.067Z"/>
<path d="M590.056 522.901C612.154 521.436 634.19 526.556 653.379 537.612C666.132 544.96 677.311 554.75 686.278 566.422C695.245 578.093 701.824 591.418 705.638 605.634C709.452 619.849 710.426 634.677 708.506 649.27C706.585 663.863 701.808 677.934 694.445 690.679C683.368 709.855 666.854 725.317 646.99 735.111C627.127 744.904 604.806 748.588 582.849 745.698C560.893 742.809 540.285 733.474 523.632 718.876C506.979 704.277 495.028 685.068 489.289 663.678C483.55 642.289 484.282 619.678 491.391 598.703C498.5 577.729 511.667 559.333 529.229 545.841C546.791 532.349 567.958 524.366 590.056 522.901Z"/>
<path d="M418.97 891.261C427.345 870.739 441.622 853.163 459.992 840.759C472.125 832.447 485.786 826.623 500.185 823.625C514.583 820.626 529.434 820.513 543.876 823.29C558.319 826.068 572.068 831.681 584.327 839.806C596.587 847.931 607.113 858.406 615.299 870.625C627.758 888.958 634.497 910.576 634.664 932.741C634.83 954.906 628.415 976.623 616.232 995.14C604.049 1013.66 586.645 1028.14 566.224 1036.76C545.803 1045.38 523.283 1047.75 501.516 1043.57C479.749 1039.38 459.713 1028.83 443.946 1013.25C428.179 997.669 417.389 977.761 412.943 956.046C408.497 934.331 410.594 911.784 418.97 891.261Z"/>
<path fill-rule="evenodd" clip-rule="evenodd" d="M1459.12 379.317C1384.25 304.981 1295.3 246.347 1197.47 206.856C1099.63 167.364 994.901 147.811 889.411 149.344C691.382 148.849 501.268 227.041 360.891 366.718C220.514 506.395 141.372 696.116 140.877 894.144C140.382 1092.17 218.574 1282.29 358.251 1422.66C497.928 1563.04 687.649 1642.18 885.677 1642.68C928.349 1643.4 970.054 1629.94 1004.24 1604.4C1038.44 1578.85 1063.18 1542.68 1074.58 1501.56C1081.86 1471.86 1081.78 1440.84 1074.36 1411.17C1066.95 1381.51 1052.42 1354.1 1032.02 1331.32C1027.31 1325.95 1024.23 1319.35 1023.16 1312.28C1022.09 1305.22 1023.06 1298 1025.97 1291.47C1028.88 1284.95 1033.6 1279.4 1039.57 1275.47C1045.54 1271.55 1052.51 1269.42 1059.65 1269.34H1182.85C1298.8 1269.89 1410.67 1226.54 1495.99 1148.01C1581.3 1069.48 1633.75 961.585 1642.8 845.984C1645.58 759.79 1630.72 673.937 1599.13 593.69C1567.55 513.443 1519.9 440.494 1459.12 379.317ZM1185.84 1120.01H1062.64C1026.66 1119.81 991.392 1130.05 961.117 1149.49C930.842 1168.93 906.86 1196.74 892.078 1229.55C877.297 1262.35 872.351 1298.74 877.842 1334.3C883.333 1369.86 899.023 1403.06 923.011 1429.88C927.681 1434.59 930.983 1440.48 932.561 1446.93C934.139 1453.37 933.935 1460.13 931.971 1466.46C928.237 1482.14 911.064 1491.85 887.917 1493.34C803.12 1492.26 719.526 1473.13 642.696 1437.23C565.866 1401.32 497.561 1349.48 442.324 1285.13C387.088 1220.78 346.187 1145.41 322.34 1064.02C298.494 982.641 292.25 897.114 304.024 813.131C325.316 672.007 395.831 542.959 503.095 448.812C610.36 354.665 747.464 301.485 890.157 298.677H896.131C980.567 297.572 1064.37 313.387 1142.6 345.191C1220.82 376.994 1291.89 424.141 1351.6 483.851C1398.19 530.472 1434.8 586.096 1459.19 647.329C1483.58 708.563 1495.24 774.122 1493.46 840.011C1485.73 916.399 1450.05 987.238 1393.27 1038.92C1336.49 1090.6 1262.61 1119.48 1185.84 1120.01Z"/>
</svg>
