<svg width="12" height="12" viewBox="0 0 12 12" fill="none" xmlns="http://www.w3.org/2000/svg">
<g clip-path="url(#clip0_17_11)">
<path d="M6.41666 8.37602C6.371 8.4445 6.30914 8.50065 6.23657 8.53948C6.164 8.57831 6.08297 8.59863 6.00066 8.59863C5.91836 8.59863 5.83732 8.57831 5.76476 8.53948C5.69219 8.50065 5.63033 8.4445 5.58466 8.37602L2.51866 3.77602C2.46883 3.70074 2.4403 3.61337 2.43612 3.52318C2.43194 3.43299 2.45226 3.34335 2.49491 3.26378C2.53757 3.18421 2.60098 3.11767 2.6784 3.07124C2.75583 3.0248 2.84438 3.00019 2.93466 3.00002L9.06666 3.00002C9.15711 3.00007 9.24584 3.02464 9.32342 3.07113C9.401 3.11762 9.46452 3.18429 9.50721 3.26402C9.54989 3.34375 9.57016 3.43357 9.56584 3.52391C9.56151 3.61425 9.53277 3.70173 9.48266 3.77702L6.41666 8.37602Z" fill="#000000"/>
</g>
<defs>
<clipPath id="clip0_17_11">
<rect width="12" height="12" fill="white"/>
</clipPath>
</defs>
</svg>
