<svg width="1792" height="1792" viewBox="0 0 1792 1792" fill="none" xmlns="http://www.w3.org/2000/svg">
<g clip-path="url(#clip0_2_20)">
<path d="M896 1792C718.788 1792 545.556 1739.45 398.209 1641C250.863 1542.54 136.02 1402.61 68.2043 1238.88C0.388222 1075.16 -17.3556 895.006 17.2168 721.199C51.7891 547.392 137.125 387.741 262.433 262.433C387.741 137.125 547.392 51.7891 721.199 17.2168C895.006 -17.3556 1075.16 0.388222 1238.88 68.2043C1402.61 136.02 1542.54 250.863 1641 398.209C1739.45 545.556 1792 718.788 1792 896C1792 1133.63 1697.6 1361.54 1529.57 1529.57C1361.54 1697.6 1133.63 1792 896 1792V1792ZM896 1612.8C1037.77 1612.8 1176.36 1570.76 1294.23 1492C1412.11 1413.23 1503.98 1301.29 1558.24 1170.31C1612.49 1039.33 1626.68 895.205 1599.03 756.16C1571.37 617.114 1503.1 489.392 1402.85 389.146C1302.61 288.9 1174.89 220.631 1035.84 192.974C896.795 165.316 752.671 179.511 621.693 233.764C490.715 288.016 378.766 379.89 300.003 497.768C221.24 615.645 179.2 754.231 179.2 896C179.2 1086.11 254.72 1268.43 389.146 1402.85C523.572 1537.28 705.893 1612.8 896 1612.8ZM448 985.6H627.2C627.2 1056.89 655.52 1125.26 705.93 1175.67C756.34 1226.08 824.71 1254.4 896 1254.4C967.29 1254.4 1035.66 1226.08 1086.07 1175.67C1136.48 1125.26 1164.8 1056.89 1164.8 985.6H1344C1344 1104.42 1296.8 1218.37 1212.78 1302.38C1128.77 1386.4 1014.82 1433.6 896 1433.6C777.183 1433.6 663.233 1386.4 579.216 1302.38C495.2 1218.37 448 1104.42 448 985.6V985.6ZM537.6 806.4C511.018 806.4 485.034 798.518 462.932 783.75C440.83 768.982 423.603 747.991 413.431 723.433C403.258 698.875 400.597 671.851 405.783 645.78C410.969 619.709 423.769 595.761 442.565 576.965C461.361 558.169 485.309 545.369 511.38 540.183C537.451 534.997 564.475 537.658 589.033 547.831C613.591 558.003 634.582 575.23 649.35 597.332C664.118 619.434 672 645.418 672 672C672 707.645 657.84 741.831 632.635 767.035C607.431 792.24 573.245 806.4 537.6 806.4ZM1254.4 806.4C1227.82 806.4 1201.83 798.518 1179.73 783.75C1157.63 768.982 1140.4 747.991 1130.23 723.433C1120.06 698.875 1117.4 671.851 1122.58 645.78C1127.77 619.709 1140.57 595.761 1159.37 576.965C1178.16 558.169 1202.11 545.369 1228.18 540.183C1254.25 534.997 1281.27 537.658 1305.83 547.831C1330.39 558.003 1351.38 575.23 1366.15 597.332C1380.92 619.434 1388.8 645.418 1388.8 672C1388.8 707.645 1374.64 741.831 1349.44 767.035C1324.23 792.24 1290.05 806.4 1254.4 806.4Z" fill="black"/>
</g>
<defs>
<clipPath id="clip0_2_20">
<rect width="1792" height="1792" fill="white"/>
</clipPath>
</defs>
</svg>
