<svg width="1792" height="1792" viewBox="0 0 1792 1792" xmlns="http://www.w3.org/2000/svg">
<path d="M1054.37 658.392L737.632 975.184C732.283 980.35 728.017 986.529 725.082 993.361C722.147 1000.19 720.603 1007.54 720.538 1014.98C720.473 1022.41 721.89 1029.79 724.706 1036.67C727.522 1043.55 731.68 1049.8 736.938 1055.06C742.196 1060.32 748.448 1064.48 755.331 1067.29C762.213 1070.11 769.587 1071.53 777.022 1071.46C784.458 1071.4 791.806 1069.85 798.639 1066.92C805.471 1063.98 811.65 1059.72 816.816 1054.37L1133.61 737.632C1165.12 706.123 1182.82 663.388 1182.82 618.828C1182.82 574.268 1165.12 531.533 1133.61 500.024C1102.1 468.515 1059.36 450.814 1014.8 450.814C970.244 450.814 927.509 468.515 896 500.024L579.208 816.816C552.668 842.695 531.531 873.587 517.023 907.698C502.515 941.81 494.925 978.463 494.693 1015.53C494.46 1052.6 501.591 1089.34 515.67 1123.63C529.75 1157.93 550.498 1189.08 576.711 1215.29C602.925 1241.5 634.081 1262.24 668.374 1276.32C702.667 1290.39 739.413 1297.52 776.481 1297.28C813.549 1297.04 850.201 1289.45 884.311 1274.93C918.42 1260.42 949.309 1239.28 975.184 1212.74L1291.98 896L1371.16 975.184L1054.37 1291.98C980.85 1365.49 881.138 1406.8 777.168 1406.8C673.198 1406.8 573.486 1365.49 499.968 1291.98C426.45 1218.46 385.148 1118.75 385.148 1014.78C385.148 910.806 426.45 811.094 499.968 737.576L816.816 420.84C842.775 394.653 873.651 373.851 907.671 359.628C941.691 345.405 978.185 338.042 1015.06 337.962C1051.93 337.881 1088.46 345.084 1122.54 359.158C1156.62 373.231 1187.59 393.898 1213.66 419.971C1239.73 446.044 1260.4 477.011 1274.47 511.093C1288.55 545.175 1295.75 581.701 1295.67 618.574C1295.59 655.447 1288.23 691.941 1274 725.961C1259.78 759.981 1238.98 790.857 1212.79 816.816L896 1133.66C864.484 1165.17 821.742 1182.87 777.176 1182.87C732.611 1182.86 689.873 1165.15 658.364 1133.64C626.855 1102.12 609.157 1059.38 609.162 1014.81C609.167 970.247 626.876 927.509 658.392 896L975.184 579.208L1054.37 658.392Z"/>
</svg>
