<svg width="1792" height="1792" viewBox="0 0 1792 1792" fill="none" xmlns="http://www.w3.org/2000/svg">
<path d="M1191.01 537.232L659.972 1068.36C651.004 1077.02 643.852 1087.38 638.931 1098.84C634.01 1110.29 631.42 1122.61 631.312 1135.08C631.204 1147.55 633.579 1159.91 638.3 1171.45C643.021 1182.99 649.992 1193.47 658.808 1202.29C667.623 1211.1 678.106 1218.07 689.645 1222.79C701.184 1227.51 713.547 1229.89 726.013 1229.78C738.48 1229.67 750.8 1227.08 762.255 1222.16C773.71 1217.24 784.07 1210.09 792.731 1201.12L1323.86 670.085C1376.69 617.258 1406.37 545.609 1406.37 470.899C1406.37 396.19 1376.69 324.541 1323.86 271.714C1271.03 218.886 1199.39 189.208 1124.68 189.208C1049.97 189.208 978.318 218.886 925.49 271.714L394.359 802.845C349.863 846.233 314.425 898.026 290.101 955.217C265.777 1012.41 253.051 1073.86 252.662 1136.01C252.272 1198.16 264.227 1259.76 287.833 1317.25C311.438 1374.75 346.224 1426.98 390.173 1470.92C434.123 1514.86 486.36 1549.64 543.855 1573.24C601.35 1596.84 662.958 1608.78 725.106 1608.39C787.254 1607.99 848.704 1595.25 905.892 1570.92C963.08 1546.59 1014.87 1511.14 1058.25 1466.64L1589.38 935.604L1722.14 1068.36L1191.01 1599.49C1067.75 1722.75 900.573 1792 726.257 1792C551.942 1792 384.766 1722.75 261.506 1599.49C138.247 1476.23 69 1309.06 69 1134.74C69 960.427 138.247 793.251 261.506 669.991L792.731 138.954C836.254 95.049 888.019 60.1724 945.057 36.3268C1002.09 12.4813 1063.28 0.136499 1125.1 0.00112561C1186.92 -0.134248 1248.16 11.9425 1305.3 35.538C1362.45 59.1335 1414.36 93.7831 1458.08 137.497C1501.79 181.212 1536.44 233.13 1560.04 290.272C1583.63 347.413 1595.71 408.652 1595.57 470.474C1595.44 532.295 1583.09 593.481 1559.25 650.518C1535.4 707.556 1500.53 759.322 1456.62 802.845L925.49 1334.07C872.65 1386.9 800.989 1416.57 726.271 1416.56C651.553 1416.55 579.899 1386.86 527.072 1334.02C474.244 1281.18 444.571 1209.52 444.58 1134.8C444.589 1060.09 474.279 988.431 527.119 935.604L1058.25 404.473L1191.01 537.232Z" fill="black"/>
</svg>
