<svg width="1792" height="1792" viewBox="0 0 1792 1792" fill="none" xmlns="http://www.w3.org/2000/svg">
<path d="M253.389 1701.8L251.597 1703.59L249.715 1701.8H88.4352C64.9314 1701.66 42.4387 1692.22 25.8692 1675.55C9.29963 1658.88 -0.000429051 1636.33 1.48458e-08 1612.83V177.973C0.163972 154.442 9.57826 131.92 26.2092 115.272C42.84 98.6246 65.3525 89.1877 88.8832 89H1703.12C1726.7 89.0237 1749.31 98.4081 1765.97 115.091C1782.64 131.774 1792 154.391 1792 177.973V1612.83C1791.84 1636.36 1782.42 1658.88 1765.79 1675.53C1749.16 1692.18 1726.65 1701.61 1703.12 1701.8H253.389ZM1612.8 1164.2V268.2H179.2V1522.6L1075.2 626.6L1612.8 1164.2ZM1612.8 1417.59L1075.2 879.989L432.589 1522.6H1612.8V1417.59ZM537.6 805.8C502.158 805.8 467.511 795.29 438.042 775.599C408.573 755.909 385.604 727.921 372.041 695.177C358.478 662.432 354.929 626.401 361.843 591.64C368.758 556.878 385.825 524.948 410.886 499.886C435.948 474.825 467.878 457.758 502.64 450.843C537.401 443.929 573.432 447.478 606.177 461.041C638.921 474.604 666.909 497.573 686.599 527.042C706.29 556.511 716.8 591.158 716.8 626.6C716.8 674.127 697.92 719.707 664.313 753.313C630.707 786.92 585.127 805.8 537.6 805.8Z" fill="black"/>
</svg>
