<svg width="1792" height="1792" viewBox="0 0 1792 1792" fill="none" xmlns="http://www.w3.org/2000/svg">
<path d="M494.368 1400L493.248 1401.12L492.072 1400H391.272C376.582 1399.91 362.524 1394.01 352.168 1383.59C341.812 1373.18 336 1359.08 336 1344.39V447.608C336.102 432.901 341.986 418.825 352.381 408.42C362.775 398.015 376.845 392.117 391.552 392H1400.45C1415.19 392.015 1429.32 397.88 1439.73 408.307C1450.15 418.734 1456 432.87 1456 447.608V1344.39C1455.9 1359.1 1450.01 1373.17 1439.62 1383.58C1429.22 1393.98 1415.15 1399.88 1400.45 1400H494.368ZM1344 1064V504H448V1288L1008 728L1344 1064ZM1344 1222.37L1008 886.368L606.368 1288H1344V1222.37ZM672 840C649.848 840 628.194 833.431 609.776 821.125C591.358 808.818 577.002 791.326 568.525 770.861C560.048 750.395 557.83 727.876 562.152 706.15C566.474 684.424 577.141 664.468 592.804 648.804C608.468 633.141 628.424 622.474 650.15 618.152C671.876 613.83 694.395 616.048 714.861 624.525C735.326 633.002 752.818 647.358 765.125 665.776C777.431 684.194 784 705.848 784 728C784 757.704 772.2 786.192 751.196 807.196C730.192 828.2 701.704 840 672 840Z" fill="black"/>
</svg>
