<svg width="1792" height="1792" viewBox="0 0 1792 1792" fill="none" xmlns="http://www.w3.org/2000/svg">
<path d="M647.136 398.197H1456V522.667H647.136V398.197ZM460.469 336V522.667H522.667V584.864H336V522.667H398.197V398.197H336V336H460.469ZM336 1020.47V864.864H460.469V833.803H336V771.531H522.667V927.061H398.197V958.197H522.667V1020.39L336 1020.47ZM460.469 1362.67H336V1300.47H460.469V1269.33H336V1207.14H522.667V1456H336V1393.8H460.469V1362.67ZM647.136 833.803H1456V958.272H647.136V833.803ZM647.136 1269.33H1456V1393.8H647.136V1269.33Z" fill="black"/>
</svg>
