<svg width="1792" height="1792" viewBox="0 0 1792 1792" fill="none" xmlns="http://www.w3.org/2000/svg">
<g clip-path="url(#clip0_2_39)">
<path d="M497.818 99.5157H1792V298.667H497.818V99.5157ZM199.151 0V298.667H298.667V398.182H0V298.667H99.5157V99.5157H0V0H199.151ZM0 1095.15V846.182H199.151V796.484H0V696.849H298.667V945.698H99.5157V995.516H298.667V1095.03L0 1095.15ZM199.151 1642.67H0V1543.15H199.151V1493.33H0V1393.82H298.667V1792H0V1692.48H199.151V1642.67ZM497.818 796.484H1792V995.635H497.818V796.484ZM497.818 1493.33H1792V1692.48H497.818V1493.33Z" fill="black"/>
</g>
<defs>
<clipPath id="clip0_2_39">
<rect width="1792" height="1792" fill="white"/>
</clipPath>
</defs>
</svg>
