<svg width="1792" height="1792" viewBox="0 0 1792 1792" fill="none" xmlns="http://www.w3.org/2000/svg">
<path d="M746.667 1493.33C725.511 1493.33 707.79 1486.17 693.504 1471.83C679.168 1457.54 672 1439.82 672 1418.67V1045.33C568.711 1045.33 480.679 1008.92 407.904 936.096C335.079 863.321 298.667 775.289 298.667 672C298.667 568.711 335.079 480.679 407.904 407.904C480.679 335.079 568.711 298.667 672 298.667H1269.33C1290.49 298.667 1308.21 305.81 1322.5 320.096C1336.83 334.432 1344 352.178 1344 373.333C1344 394.489 1336.83 412.235 1322.5 426.571C1308.21 440.857 1290.49 448 1269.33 448H1194.67V1418.67C1194.67 1439.82 1187.52 1457.54 1173.24 1471.83C1158.9 1486.17 1141.16 1493.33 1120 1493.33C1098.84 1493.33 1081.12 1486.17 1066.84 1471.83C1052.5 1457.54 1045.33 1439.82 1045.33 1418.67V448H821.333V1418.67C821.333 1439.82 814.19 1457.54 799.904 1471.83C785.568 1486.17 767.822 1493.33 746.667 1493.33Z"/>
</svg>
