<svg width="1792" height="1792" viewBox="0 0 1792 1792" fill="none" xmlns="http://www.w3.org/2000/svg">
<path d="M1373.87 791.467C1235.73 671.253 1056.53 597.333 858.667 597.333C548.053 597.333 280.747 778.027 153.813 1040.11C129.92 1090.13 156.8 1149.87 209.813 1167.79C253.867 1182.72 301.653 1161.81 321.813 1120C418.88 921.387 622.72 784 858.667 784C1004.27 784 1137.17 837.76 1240.96 924.373L1098.35 1066.99C1051.31 1114.03 1084.16 1194.67 1150.61 1194.67H1568C1609.07 1194.67 1642.67 1161.07 1642.67 1120V702.613C1642.67 636.16 1562.03 602.56 1514.99 649.6L1373.87 791.467Z"/>
</svg>
