<svg width="1792" height="1792" viewBox="0 0 1792 1792" fill="none" xmlns="http://www.w3.org/2000/svg">
<g clip-path="url(#clip0_2_42)">
<path d="M995.516 696.849V1095.03H1592.85V696.849H995.516ZM796.365 696.849H199.031V1095.03H796.365V696.849ZM995.516 1592.85H1592.85V1294.18H995.516V1592.85ZM796.365 1592.85V1294.18H199.031V1592.85H796.365ZM995.516 199.151V497.818H1592.85V199.151H995.516ZM796.365 199.151H199.031V497.818H796.365V199.151ZM99.5157 0H1692.48C1718.88 0 1744.19 10.4847 1762.85 29.1475C1781.52 47.8103 1792 73.1225 1792 99.5157V1692.48C1792 1718.88 1781.52 1744.19 1762.85 1762.85C1744.19 1781.52 1718.88 1792 1692.48 1792H99.5157C73.1225 1792 47.8103 1781.52 29.1475 1762.85C10.4847 1744.19 0 1718.88 0 1692.48V99.5157C0 73.1225 10.4847 47.8103 29.1475 29.1475C47.8103 10.4847 73.1225 0 99.5157 0V0Z" fill="black"/>
</g>
<defs>
<clipPath id="clip0_2_42">
<rect width="1792" height="1792" fill="white"/>
</clipPath>
</defs>
</svg>
