<svg width="1792" height="1792" viewBox="0 0 1792 1792" fill="none" xmlns="http://www.w3.org/2000/svg">
<g clip-path="url(#clip0_2_45)">
<path fill-rule="evenodd" clip-rule="evenodd" d="M330.578 53.8148C295.631 30.4636 254.544 18 212.513 18C156.169 18.0608 102.151 40.47 62.3106 80.3106C22.47 120.151 0.060813 174.169 0 230.513C0 272.544 12.4636 313.631 35.8148 348.578C59.166 383.526 92.3559 410.764 131.188 426.849C170.019 442.933 212.748 447.142 253.972 438.942C295.195 430.742 333.061 410.502 362.782 380.782C392.502 351.061 412.742 313.195 420.942 271.972C429.142 230.748 424.933 188.019 408.849 149.188C392.764 110.356 365.526 77.166 330.578 53.8148ZM253.995 292.596C241.716 300.8 227.28 305.179 212.513 305.179C192.719 305.149 173.745 297.272 159.749 283.276C145.753 269.28 137.876 250.306 137.846 230.513C137.846 215.745 142.225 201.309 150.43 189.03C158.634 176.751 170.295 167.181 183.939 161.53C197.582 155.878 212.595 154.4 227.079 157.281C241.563 160.162 254.867 167.273 265.31 177.715C275.752 188.158 282.863 201.462 285.744 215.946C288.625 230.43 287.147 245.443 281.495 259.086C275.844 272.73 266.274 284.391 253.995 292.596ZM330.578 723.861C295.631 700.51 254.544 688.046 212.513 688.046C156.169 688.107 102.151 710.516 62.3106 750.357C22.47 790.198 0.060813 844.216 0 900.559C0 942.59 12.4636 983.677 35.8148 1018.62C59.166 1053.57 92.3559 1080.81 131.188 1096.89C170.019 1112.98 212.748 1117.19 253.972 1108.99C295.195 1100.79 333.061 1080.55 362.782 1050.83C392.502 1021.11 412.742 983.241 420.942 942.018C429.142 900.795 424.933 858.065 408.849 819.234C392.764 780.402 365.526 747.212 330.578 723.861ZM253.995 962.642C241.716 970.846 227.28 975.225 212.513 975.225C192.719 975.195 173.745 967.319 159.749 953.322C145.753 939.326 137.876 920.352 137.846 900.559C137.846 885.791 142.225 871.355 150.43 859.076C158.634 846.797 170.295 837.227 183.939 831.576C197.582 825.925 212.595 824.446 227.079 827.327C241.563 830.208 254.867 837.319 265.31 847.762C275.752 858.204 282.863 871.508 285.744 885.992C288.625 900.476 287.147 915.489 281.495 929.133C275.844 942.776 266.274 954.437 253.995 962.642ZM330.578 1384.37C295.631 1361.02 254.544 1348.56 212.513 1348.56C156.169 1348.62 102.151 1371.03 62.3106 1410.87C22.47 1450.71 0.060813 1504.73 0 1561.07C0 1603.1 12.4636 1644.19 35.8148 1679.14C59.166 1714.08 92.3559 1741.32 131.188 1757.41C170.019 1773.49 212.748 1777.7 253.972 1769.5C295.195 1761.3 333.061 1741.06 362.782 1711.34C392.502 1681.62 412.742 1643.75 420.942 1602.53C429.142 1561.31 424.933 1518.58 408.849 1479.75C392.764 1440.91 365.526 1407.72 330.578 1384.37ZM259.858 1618.74C246.518 1629.71 229.786 1635.72 212.513 1635.74C202.699 1635.77 192.976 1633.86 183.906 1630.12C174.836 1626.37 166.599 1620.86 159.672 1613.91C147.447 1601.71 139.833 1585.64 138.124 1568.45C136.416 1551.27 140.721 1534.02 150.304 1519.65C159.888 1505.27 174.157 1494.67 190.682 1489.64C207.207 1484.61 224.965 1485.47 240.93 1492.06C256.895 1498.65 270.08 1510.58 278.238 1525.8C286.397 1541.03 289.024 1558.61 285.673 1575.56C282.321 1592.5 273.198 1607.76 259.858 1618.74ZM1792 134.825H547.596V326.201H1792V134.825ZM1792 804.871H547.596V996.362H1792V804.871ZM1792 1474.92H547.596V1666.41H1792V1474.92Z" fill="black"/>
</g>
<defs>
<clipPath id="clip0_2_45">
<rect width="1792" height="1792" fill="white"/>
</clipPath>
</defs>
</svg>
