<svg width="1792" height="1792" viewBox="0 0 1792 1792" fill="none" xmlns="http://www.w3.org/2000/svg">
<path d="M647.136 398.272H1456V522.667H647.136V398.272ZM647.136 833.803H1456V958.272H647.136V833.803ZM647.136 1269.33H1456V1393.8H647.136V1269.33Z"/>
<path d="M429.334 322.336C456.654 322.336 483.36 330.437 506.076 345.616C528.792 360.794 546.497 382.367 556.952 407.608C567.407 432.849 570.143 460.623 564.813 487.418C559.483 514.213 546.327 538.826 527.009 558.144C507.69 577.463 483.077 590.619 456.282 595.948C429.487 601.278 401.713 598.543 376.472 588.088C351.232 577.633 329.658 559.928 314.48 537.212C299.302 514.496 291.2 487.79 291.2 460.469C291.24 423.846 305.806 388.734 331.702 362.838C357.599 336.942 392.71 322.376 429.334 322.336V322.336ZM429.334 509.003C438.933 509.003 448.316 506.156 456.297 500.823C464.278 495.49 470.499 487.911 474.172 479.042C477.846 470.174 478.807 460.415 476.934 451.001C475.062 441.586 470.439 432.939 463.652 426.151C456.864 419.364 448.216 414.741 438.802 412.869C429.387 410.996 419.629 411.957 410.761 415.63C401.892 419.304 394.312 425.524 388.98 433.506C383.647 441.487 380.8 450.87 380.8 460.469C380.82 473.335 385.94 485.668 395.037 494.766C404.135 503.863 416.468 508.983 429.334 509.003ZM429.334 757.867C456.654 757.867 483.36 765.968 506.076 781.146C528.792 796.325 546.497 817.898 556.952 843.139C567.407 868.379 570.143 896.153 564.813 922.948C559.483 949.744 546.327 974.357 527.009 993.675C507.69 1012.99 483.077 1026.15 456.282 1031.48C429.487 1036.81 401.713 1034.07 376.472 1023.62C351.232 1013.16 329.658 995.459 314.48 972.743C299.302 950.027 291.2 923.32 291.2 896C291.24 859.377 305.806 824.265 331.702 798.369C357.599 772.472 392.71 757.906 429.334 757.867ZM429.334 944.533C438.933 944.533 448.316 941.687 456.297 936.354C464.278 931.021 470.499 923.441 474.172 914.573C477.846 905.705 478.807 895.946 476.934 886.532C475.062 877.117 470.439 868.469 463.652 861.682C456.864 854.894 448.216 850.272 438.802 848.399C429.387 846.527 419.629 847.488 410.761 851.161C401.892 854.834 394.312 861.055 388.98 869.036C383.647 877.018 380.8 886.401 380.8 896C380.82 908.866 385.94 921.199 395.037 930.296C404.135 939.394 416.468 944.514 429.334 944.533V944.533ZM429.334 1187.2C456.654 1187.2 483.36 1195.3 506.076 1210.48C528.792 1225.66 546.497 1247.23 556.952 1272.47C567.407 1297.71 570.143 1325.49 564.813 1352.28C559.483 1379.08 546.327 1403.69 527.009 1423.01C507.69 1442.33 483.077 1455.48 456.282 1460.81C429.487 1466.14 401.713 1463.41 376.472 1452.95C351.232 1442.5 329.658 1424.79 314.48 1402.08C299.302 1379.36 291.2 1352.65 291.2 1325.33C291.24 1288.71 305.806 1253.6 331.702 1227.7C357.599 1201.81 392.71 1187.24 429.334 1187.2V1187.2ZM429.334 1373.87C440.561 1373.85 451.437 1369.95 460.108 1362.82C468.779 1355.68 474.709 1345.76 476.888 1334.75C479.066 1323.74 477.358 1312.31 472.055 1302.41C466.752 1292.51 458.182 1284.76 447.805 1280.48C437.427 1276.19 425.885 1275.63 415.144 1278.9C404.403 1282.17 395.127 1289.07 388.898 1298.41C382.669 1307.75 379.871 1318.96 380.981 1330.13C382.091 1341.31 387.041 1351.75 394.987 1359.68C399.489 1364.2 404.844 1367.78 410.739 1370.21C416.635 1372.65 422.955 1373.89 429.334 1373.87V1373.87Z"/>
</svg>
