<svg width="1792" height="1792" viewBox="0 0 1792 1792" fill="none" xmlns="http://www.w3.org/2000/svg">
<path d="M647.061 336V896C647.061 962.013 673.285 1025.32 719.963 1072C766.641 1118.68 829.95 1144.9 895.963 1144.9C961.975 1144.9 1025.28 1118.68 1071.96 1072C1118.64 1025.32 1144.86 962.013 1144.86 896V336H1269.33V896C1269.33 995.014 1230 1089.97 1159.99 1159.99C1089.97 1230 995.014 1269.33 896 1269.33C796.986 1269.33 702.027 1230 632.013 1159.99C562 1089.97 522.667 995.014 522.667 896V336H647.061ZM398.197 1393.8H1393.73V1518.27H398.197V1393.8Z" fill="black"/>
</svg>
