<svg width="1792" height="1792" viewBox="0 0 1792 1792" fill="none" xmlns="http://www.w3.org/2000/svg">
<path d="M933.333 597.333C735.467 597.333 556.267 671.253 418.133 791.467L277.013 650.347C229.973 603.307 149.333 636.16 149.333 702.613V1120C149.333 1161.07 182.933 1194.67 224 1194.67H641.387C707.84 1194.67 741.44 1114.03 694.4 1066.99L551.787 924.373C655.573 837.76 787.733 784 934.08 784C1170.03 784 1373.87 921.387 1470.93 1120C1491.09 1161.81 1538.88 1182.72 1582.93 1167.79C1635.95 1150.61 1662.83 1090.13 1638.93 1039.36C1510.51 778.027 1243.2 597.333 933.333 597.333Z"/>
</svg>
