<svg width="1792" height="1792" viewBox="0 0 1792 1792" fill="none" xmlns="http://www.w3.org/2000/svg">
<g clip-path="url(#clip0_2_26)">
<path d="M896 1792C718.788 1792 545.556 1739.45 398.209 1641C250.863 1542.54 136.02 1402.61 68.2043 1238.88C0.388222 1075.16 -17.3556 895.006 17.2168 721.199C51.7891 547.392 137.125 387.741 262.433 262.433C387.741 137.125 547.392 51.7891 721.199 17.2168C895.006 -17.3556 1075.16 0.388222 1238.88 68.2043C1402.61 136.02 1542.54 250.863 1641 398.209C1739.45 545.556 1792 718.788 1792 896C1792 1133.63 1697.6 1361.54 1529.57 1529.57C1361.54 1697.6 1133.63 1792 896 1792V1792ZM896 1612.8C1037.77 1612.8 1176.36 1570.76 1294.23 1492C1412.11 1413.23 1503.98 1301.29 1558.24 1170.31C1612.49 1039.33 1626.68 895.205 1599.03 756.16C1571.37 617.114 1503.1 489.392 1402.85 389.146C1302.61 288.9 1174.89 220.631 1035.84 192.974C896.795 165.316 752.671 179.511 621.693 233.764C490.715 288.016 378.766 379.89 300.003 497.768C221.24 615.645 179.2 754.231 179.2 896C179.2 1086.11 254.72 1268.43 389.146 1402.85C523.572 1537.28 705.893 1612.8 896 1612.8ZM772.531 574.784L1209.6 866.163C1214.52 869.435 1218.55 873.871 1221.34 879.076C1224.12 884.281 1225.58 890.095 1225.58 896C1225.58 901.905 1224.12 907.719 1221.34 912.924C1218.55 918.13 1214.52 922.565 1209.6 925.837L772.352 1217.22C766.962 1220.77 760.713 1222.79 754.265 1223.09C747.818 1223.38 741.411 1221.93 735.721 1218.88C730.031 1215.83 725.27 1211.31 721.939 1205.78C718.609 1200.25 716.834 1193.92 716.8 1187.47V604.531C716.812 598.049 718.582 591.691 721.922 586.135C725.261 580.579 730.045 576.032 735.764 572.98C741.483 569.927 747.922 568.483 754.397 568.801C760.872 569.119 767.139 571.186 772.531 574.784V574.784Z" fill="black"/>
</g>
<defs>
<clipPath id="clip0_2_26">
<rect width="1792" height="1792" fill="white"/>
</clipPath>
</defs>
</svg>
