<svg width="1792" height="1792" viewBox="0 0 1792 1792" fill="none" xmlns="http://www.w3.org/2000/svg">
<path d="M746.641 1418.68C731.876 1418.68 717.427 1414.27 705.151 1406.06C692.875 1397.86 683.312 1386.2 677.662 1372.56C672.012 1358.92 670.553 1343.91 673.433 1329.43C676.312 1314.95 683.41 1301.66 693.849 1291.22L1089.06 896.012L693.849 500.804C680.248 486.722 672.752 467.845 672.922 448.268C673.092 428.69 680.953 409.976 694.797 396.132C708.641 382.288 727.355 374.427 746.933 374.257C766.51 374.087 785.35 381.62 799.433 395.221L1247.43 843.221C1261.43 857.223 1269.31 876.213 1269.31 896.012C1269.31 915.811 1261.43 934.802 1247.43 948.804L799.433 1396.8C785.433 1410.81 766.442 1418.67 746.641 1418.68Z" fill="black"/>
</svg>
