<svg width="1792" height="1792" viewBox="0 0 1792 1792" fill="none" xmlns="http://www.w3.org/2000/svg">
<path d="M1045.33 1418.68C1025.53 1418.67 1006.54 1410.81 992.537 1396.8L544.537 948.804C530.539 934.802 522.662 915.811 522.662 896.012C522.662 876.213 530.539 857.223 544.537 843.221L992.537 395.221C1006.62 381.62 1025.46 374.087 1045.04 374.257C1064.61 374.427 1083.4 382.288 1097.25 396.132C1111.09 409.976 1118.88 428.69 1119.05 448.268C1119.22 467.845 1111.72 486.722 1098.12 500.804L702.912 896.012L1098.12 1291.22C1108.56 1301.66 1115.66 1314.95 1118.54 1329.43C1121.42 1343.91 1119.96 1358.92 1114.31 1372.56C1108.66 1386.2 1099.09 1397.86 1086.82 1406.06C1074.54 1414.27 1060.09 1418.68 1045.33 1418.68Z" fill="black"/>
</svg>
