<svg width="1792" height="1792" viewBox="0 0 1792 1792" fill="none" xmlns="http://www.w3.org/2000/svg">
<path d="M958.197 771.531V1020.39H1331.53V771.531H958.197ZM833.728 771.531H460.395V1020.39H833.728V771.531ZM958.197 1331.53H1331.53V1144.86H958.197V1331.53ZM833.728 1331.53V1144.86H460.395V1331.53H833.728ZM958.197 460.469V647.136H1331.53V460.469H958.197ZM833.728 460.469H460.395V647.136H833.728V460.469ZM398.197 336H1393.8C1410.3 336 1426.12 342.553 1437.78 354.217C1449.45 365.881 1456 381.702 1456 398.197V1393.8C1456 1410.3 1449.45 1426.12 1437.78 1437.78C1426.12 1449.45 1410.3 1456 1393.8 1456H398.197C381.702 1456 365.881 1449.45 354.217 1437.78C342.553 1426.12 336 1410.3 336 1393.8V398.197C336 381.702 342.553 365.881 354.217 354.217C365.881 342.553 381.702 336 398.197 336V336Z"/>
</svg>
