<svg width="1792" height="1792" viewBox="0 0 1792 1792" fill="none" xmlns="http://www.w3.org/2000/svg">
<path fill-rule="evenodd" clip-rule="evenodd" d="M801.605 336.115C889.489 336.118 975.547 361.2 1049.67 408.416C1123.79 455.631 1182.9 523.019 1220.06 602.663C1257.21 682.307 1270.86 770.9 1259.41 858.035C1247.96 945.17 1211.88 1027.23 1155.42 1094.57L1435.63 1359.11C1445.62 1370.14 1450.98 1384.6 1450.61 1399.48C1450.24 1414.36 1444.15 1428.53 1433.62 1439.05C1423.08 1449.57 1408.91 1455.63 1394.03 1455.98C1379.14 1456.34 1364.69 1450.95 1353.67 1440.94L1071.73 1172.37C993.553 1229.15 899.378 1259.66 802.758 1259.52C742.119 1259.52 682.074 1247.57 626.051 1224.37C570.028 1201.16 519.124 1167.15 476.246 1124.27C433.368 1081.39 399.355 1030.49 376.149 974.465C352.944 918.442 341 858.396 341 797.758C341 737.119 352.944 677.074 376.149 621.051C399.355 565.028 433.368 514.124 476.246 471.246C519.124 428.368 570.028 394.355 626.051 371.149C682.074 347.944 742.119 336 802.758 336L801.605 336.115ZM801.605 1144.19C870.1 1144.19 937.057 1123.88 994.009 1085.83C1050.96 1047.77 1095.35 993.684 1121.56 930.403C1147.77 867.122 1154.63 797.489 1141.27 730.31C1127.91 663.13 1094.92 601.422 1046.49 552.989C998.055 504.555 936.347 471.572 869.168 458.209C801.989 444.846 732.356 451.705 669.075 477.917C605.793 504.129 551.706 548.517 513.652 605.469C475.598 662.421 455.287 729.378 455.287 797.873C455.287 889.722 491.774 977.809 556.721 1042.76C621.668 1107.7 709.756 1144.19 801.605 1144.19V1144.19Z"/>
</svg>
