<svg viewBox="0 0 252 252" xmlns="http://www.w3.org/2000/svg">
<path d="M0 16C0 7.16344 7.16344 0 16 0H85.6364C86.5205 0 87.3797 0.29288 88.0796 0.832871L120.92 26.1671C121.62 26.7071 122.48 27 123.364 27H227C235.837 27 243 34.1634 243 43V132.335C243 134.779 240.234 136.198 238.25 134.772L233 131L226.5 127L220 124L212.5 122L202.5 120L189 120.5L179.5 122.5L170.5 125.5L161.5 130.5L157 133.5L153 137L146.5 144L141 152L137 160L134 168L132.5 178L132 183.5V189.5L133 197.5L135 205.5L137.5 211.5L139.524 214.996C141.068 217.663 139.144 221 136.062 221H16C7.16344 221 0 213.837 0 205V16Z"/>
<circle cx="197" cy="185" r="56"/>
<path d="M188.364 215.955V151.591H204.636V215.955H188.364ZM164.318 191.909V175.636H228.682V191.909H164.318Z" fill="white"/>
</svg>
