<svg width="32" height="32" viewBox="0 0 32 32" fill="none" xmlns="http://www.w3.org/2000/svg">
<g clip-path="url(#clip0_4565_190794)">
<path d="M25.4993 26.4001C25.2607 26.3999 25.0319 26.3049 24.8633 26.1361L6.86332 8.13607C6.77971 8.0525 6.71339 7.95327 6.66815 7.84406C6.6229 7.73484 6.59961 7.61779 6.59961 7.49957C6.59961 7.38136 6.6229 7.2643 6.66815 7.15509C6.71339 7.04588 6.77971 6.94665 6.86332 6.86307C6.94689 6.77947 7.04612 6.71315 7.15533 6.6679C7.26455 6.62265 7.3816 6.59937 7.49982 6.59937C7.61803 6.59937 7.73509 6.62265 7.8443 6.6679C7.95351 6.71315 8.05274 6.77947 8.13632 6.86307L26.1363 24.8631C26.2624 24.9889 26.3483 25.1494 26.3832 25.3242C26.418 25.4989 26.4002 25.68 26.332 25.8447C26.2637 26.0093 26.1482 26.1499 26 26.2488C25.8517 26.3477 25.6775 26.4003 25.4993 26.4001Z" fill="#545557"/>
<path d="M7.49932 26.4001C7.2607 26.3999 7.03194 26.3049 6.86332 26.1361C6.77971 26.0525 6.71339 25.9533 6.66815 25.8441C6.6229 25.7348 6.59961 25.6178 6.59961 25.4996C6.59961 25.3814 6.6229 25.2643 6.66815 25.1551C6.71339 25.0459 6.77971 24.9466 6.86332 24.8631L24.8633 6.86307C24.9469 6.77947 25.0461 6.71315 25.1553 6.6679C25.2645 6.62265 25.3816 6.59937 25.4998 6.59937C25.618 6.59937 25.7351 6.62265 25.8443 6.6679C25.9535 6.71315 26.0527 6.77947 26.1363 6.86307C26.2199 6.94665 26.2862 7.04588 26.3315 7.15509C26.3767 7.2643 26.4 7.38136 26.4 7.49957C26.4 7.61779 26.3767 7.73484 26.3315 7.84406C26.2862 7.95327 26.2199 8.0525 26.1363 8.13607L8.13632 26.1361C8.05271 26.2198 7.95341 26.2862 7.8441 26.3315C7.7348 26.3768 7.61764 26.4001 7.49932 26.4001Z" fill="#545557"/>
</g>
<defs>
<clipPath id="clip0_4565_190794">
<rect width="32" height="32" fill="white"/>
</clipPath>
</defs>
</svg>
